<?xml version="1.0" encoding="UTF-8" standalone="no"?>
<svg width="348px" height="232px" viewBox="0 0 348 232" version="1.1" xmlns="http://www.w3.org/2000/svg" xmlns:xlink="http://www.w3.org/1999/xlink" xmlns:sketch="http://www.bohemiancoding.com/sketch/ns">
    <!-- Generator: Sketch 3.0.3 (7892) - http://www.bohemiancoding.com/sketch -->
    <title>Adidas_Logo</title>
    <desc>Created with Sketch.</desc>
    <defs></defs>
    <g id="Page-1" stroke="none" stroke-width="1" fill="none" fill-rule="evenodd" sketch:type="MSPage">
        <g id="icon_512x512" sketch:type="MSArtboardGroup" transform="translate(-83.000000, -141.000000)" fill="#FFFFFF">
            <g id="Adidas_Logo" sketch:type="MSLayerGroup" transform="translate(83.000000, 141.000000)">
                <path d="M345.589733,188.06992 L335.612709,188.06992 L330.442348,188.06992 C329.97164,185.55555 329.242383,183.784343 328.245918,182.787265 C326.625348,181.165311 323.860481,180.328633 320.0441,180.328633 C316.283387,180.328633 313.673155,180.954129 312.213405,182.211314 C311.113025,183.153273 310.537166,184.459383 310.537166,186.081957 C310.537166,188.379571 313.728824,190.212708 320.0441,191.624718 C327.256257,193.191555 332.427856,194.553402 335.612709,195.650188 C336.448355,195.966032 337.177611,196.226139 337.703369,196.486247 C344.130601,199.520831 347.315455,204.128445 347.315455,210.297322 C347.315455,217.827426 344.180084,223.320643 337.963155,226.77078 C337.177611,227.191906 336.448355,227.557295 335.612709,227.922684 C331.59221,229.650539 326.891319,230.536142 321.615187,230.536142 C313.728824,230.536142 307.351693,229.124131 302.496168,226.349654 C299.441207,224.572255 297.158182,222.336571 295.636578,219.642603 C294.114973,216.948016 293.354171,213.801957 293.354171,210.191421 L309.232668,210.191421 C309.232668,212.91078 310.227897,215.059142 312.157736,216.521316 C314.093761,218.038609 317.384385,218.825123 322.029608,218.825123 C325.530535,218.825123 328.140766,218.088153 329.866488,216.626598 C331.227273,215.474694 331.851996,214.21689 331.851996,212.755954 C331.851996,210.297322 328.722193,208.365097 322.499697,207.00263 C313.203684,205.014668 307.352312,203.392094 304.951765,202.24019 C298.58082,199.261343 295.445449,194.660542 295.445449,188.274909 C295.445449,183.153273 297.065401,178.81196 300.406127,175.257161 C304.587446,170.809946 310.853239,168.61204 319.160209,168.61204 C326.001242,168.61204 331.487677,169.609118 335.613328,171.541343 C335.978266,171.696169 336.294339,171.857188 336.609175,172.067751 C339.584344,173.684131 341.82902,175.833113 343.332686,178.502308 C344.835116,181.164692 345.589733,184.359676 345.589733,188.06992 L345.589733,188.06992 Z" id="Shape" sketch:type="MSShapeGroup"></path>
                <path d="M337.493066,151.041796 C337.493066,150.725952 337.443583,150.465845 337.282763,150.255282 C337.128128,149.995174 336.917825,149.833536 336.608556,149.735067 C336.398253,149.67871 336.08218,149.629166 335.612709,149.573429 L335.037469,149.573429 L333.212781,149.573429 L333.212781,152.502732 L335.14262,152.502732 L335.612709,152.502732 C336.29372,152.453188 336.763191,152.347906 337.022977,152.087799 C337.338431,151.821499 337.493066,151.456729 337.493066,151.041796 L337.493066,151.041796 Z M338.748699,149.468767 C339.064153,149.890512 339.218788,150.360563 339.218788,150.880777 C339.218788,151.611555 338.959002,152.243244 338.433244,152.763458 C337.913053,153.289866 337.23328,153.60571 336.398253,153.654635 C336.763191,153.809461 337.022977,153.971099 337.23328,154.175469 L338.69303,156.113887 L339.842893,158.046113 L337.962537,158.046113 L337.07246,156.479276 C336.503405,155.488391 336.032697,154.751421 335.612709,154.386032 C335.563226,154.336488 335.507558,154.280751 335.402406,154.231206 L334.152959,153.865818 L333.212162,153.865818 L333.212162,158.046113 L331.641075,158.046113 L331.641075,148.217775 L335.03685,148.217775 C335.247153,148.217775 335.457456,148.267319 335.612091,148.267319 C336.447736,148.267319 337.071841,148.372601 337.492447,148.527426 C338.012638,148.688445 338.433244,148.998097 338.748699,149.468767 L338.748699,149.468767 Z" id="Shape" sketch:type="MSShapeGroup"></path>
                <path d="M343.189804,153.029759 C343.189804,151.667292 342.874349,150.4163 342.194576,149.20866 C341.513565,148.007831 340.574005,147.065871 339.373422,146.384638 C338.174077,145.758523 336.917825,145.393134 335.662193,145.393134 L335.612709,145.393134 C334.357077,145.393134 333.107629,145.758523 331.907665,146.384638 C330.702134,147.065871 329.761337,148.007212 329.081563,149.20866 C328.407357,150.4163 328.0418,151.667292 328.0418,153.029759 C328.0418,154.336488 328.407357,155.58748 329.081563,156.795121 C329.712472,157.94145 330.652651,158.888365 331.851996,159.563405 C333.051961,160.245257 334.308212,160.560483 335.612709,160.560483 L335.662193,160.560483 C336.973494,160.560483 338.222941,160.244638 339.429091,159.563405 C340.629055,158.888365 341.569234,157.94145 342.194576,156.795121 C342.874349,155.586861 343.189804,154.336488 343.189804,153.029759 L343.189804,153.029759 Z M344.705223,153.029759 C344.705223,154.547051 344.3341,156.064343 343.499073,157.525898 C342.719715,158.987453 341.618717,160.090432 340.159585,160.870134 C338.693649,161.712386 337.233898,162.077775 335.662193,162.077775 L335.612709,162.077775 C334.047807,162.077775 332.58249,161.712386 331.122121,160.870134 C329.656185,160.089812 328.561373,158.987453 327.775829,157.525898 C326.940802,156.064962 326.576483,154.547051 326.576483,153.029759 C326.576483,151.407185 326.941421,149.890512 327.775829,148.422764 C328.610856,146.961209 329.711854,145.865043 331.171604,145.078528 C332.63754,144.292013 334.096672,143.926625 335.612709,143.8777 L335.662193,143.8777 C337.177611,143.8777 338.643547,144.292633 340.103298,145.078528 C341.569234,145.865662 342.719715,146.961209 343.499073,148.422764 C344.3341,149.889893 344.705223,151.406566 344.705223,153.029759 L344.705223,153.029759 Z" id="Shape" sketch:type="MSShapeGroup"></path>
                <path d="M255.846007,79.1283378 L298.735455,150.676408 L255.846007,150.676408 L229.836471,150.676408 L188.883048,82.317748 L157.857166,30.5935657 L188.883048,11.9215818 L208.416488,0.154825737 L255.846007,79.1283378 Z" id="Shape" sketch:type="MSShapeGroup"></path>
                <path d="M286.983226,200.35689 L286.983226,229.699464 L272.719733,229.699464 L272.719733,226.454936 C267.913071,229.594182 262.16685,231.427319 256.006209,231.427319 L255.845389,231.427319 C238.817029,231.322038 224.974141,217.4063 224.974141,200.35689 C224.974141,183.308099 238.817029,169.398555 255.845389,169.292654 L256.006209,169.292654 C262.16685,169.292654 267.913071,171.12641 272.719733,174.260083 L272.719733,170.86011 L286.983226,170.86011 L286.983226,200.35689 L286.983226,200.35689 Z M272.719733,203.602038 L272.719733,197.117936 C271.204314,189.271367 264.258128,183.30748 256.006209,183.30748 L255.845389,183.30748 C246.499275,183.363217 238.92218,190.999223 238.92218,200.356271 C238.92218,209.720131 246.499275,217.356137 255.845389,217.461418 L256.006209,217.461418 C264.258128,217.462038 271.204314,211.448606 272.719733,203.602038 L272.719733,203.602038 Z" id="Shape" sketch:type="MSShapeGroup"></path>
                <path d="M220.014082,200.35689 L220.014082,229.699464 L205.756774,229.699464 L205.756774,226.454936 C200.895062,229.594182 195.203891,231.427319 189.037683,231.427319 L188.883048,231.427319 C171.854688,231.322038 158.0118,217.4063 158.0118,200.35689 C158.0118,183.308099 171.854688,169.398555 188.883048,169.292654 L189.037683,169.292654 C195.20451,169.292654 200.895062,171.12641 205.756774,174.260083 L205.756774,150.676408 L220.014082,150.676408 L220.014082,200.35689 L220.014082,200.35689 Z M205.756774,203.602038 L205.756774,197.117936 C204.241355,189.271367 197.288984,183.30748 189.037683,183.30748 L188.883048,183.30748 C179.530749,183.363217 171.95984,190.999223 171.95984,200.356271 C171.95984,209.720131 179.530749,217.356137 188.883048,217.461418 L189.037683,217.461418 C197.288984,217.462038 204.241355,211.448606 205.756774,203.602038 L205.756774,203.602038 Z" id="Shape" sketch:type="MSShapeGroup"></path>
                <path d="M188.883048,122.534662 L205.701105,150.676408 L188.883048,150.676408 L136.851604,150.676408 L98.6197504,86.9749062 L96.949697,84.200429 L98.6197504,83.2095442 L147.564688,53.7059517 L188.883048,122.534662 Z" id="Shape" sketch:type="MSShapeGroup"></path>
                <rect id="Rectangle-path" sketch:type="MSShapeGroup" x="136.69697" y="169.069705" width="15.5129412" height="60.4068097"></rect>
                <rect id="Rectangle-path" sketch:type="MSShapeGroup" x="136.69697" y="151.10992" width="15.5129412" height="13.649437"></rect>
                <path d="M129.800267,200.35689 L129.800267,229.699464 L115.542959,229.699464 L115.542959,226.454936 C110.687433,229.594182 104.941212,231.427319 98.774385,231.427319 L98.6197504,231.427319 C81.5913904,231.322038 67.7485027,217.4063 67.7485027,200.35689 C67.7485027,183.308099 81.5913904,169.398555 98.6197504,169.292654 L98.774385,169.292654 C104.941212,169.292654 110.687433,171.12641 115.542959,174.260083 L115.542959,150.676408 L129.800267,150.676408 L129.800267,200.35689 L129.800267,200.35689 Z M115.542959,203.602038 L115.542959,197.117936 C114.02754,189.271367 107.081355,183.30748 98.774385,183.30748 L98.6197504,183.30748 C89.267451,183.363217 81.6965419,190.999223 81.6965419,200.356271 C81.6965419,209.720131 89.267451,217.356137 98.6197504,217.461418 L98.774385,217.461418 C107.081355,217.462038 114.02754,211.448606 115.542959,203.602038 L115.542959,203.602038 Z" id="Shape" sketch:type="MSShapeGroup"></path>
                <path d="M98.6197504,127.136702 L112.722424,150.676408 L98.6197504,150.676408 L43.8234403,150.676408 L36.0917112,137.757129 L86.7067023,107.319008 L98.6197504,127.136702 Z" id="Shape" sketch:type="MSShapeGroup"></path>
                <path d="M62.1569162,200.35689 L62.1569162,229.699464 L47.8996078,229.699464 L47.8996078,226.454936 C43.0378966,229.594182 37.2916756,231.427319 31.1310339,231.427319 L30.9702139,231.427319 C13.9975223,231.322038 0.154634581,217.4063 0.154634581,200.35689 C0.154634581,183.308099 13.9975223,169.398555 30.9702139,169.292654 L31.1310339,169.292654 C37.2916756,169.292654 43.0378966,171.12641 47.8996078,174.260083 L47.8996078,170.86011 L62.1569162,170.86011 L62.1569162,200.35689 L62.1569162,200.35689 Z M47.8996078,203.602038 L47.8996078,197.117936 C46.3841889,189.271367 39.4380036,183.30748 31.1310339,183.30748 L30.9702139,183.30748 C21.6735829,183.363217 14.1026738,190.999223 14.1026738,200.356271 C14.1026738,209.720131 21.6735829,217.356137 30.9702139,217.461418 L31.1310339,217.461418 C39.4380036,217.462038 46.3841889,211.448606 47.8996078,203.602038 L47.8996078,203.602038 Z" id="Shape" sketch:type="MSShapeGroup"></path>
            </g>
        </g>
    </g>
</svg>