<?xml version="1.0" encoding="UTF-8" standalone="no"?>
<svg width="512px" height="512px" viewBox="0 0 512 512" version="1.1" xmlns="http://www.w3.org/2000/svg" xmlns:xlink="http://www.w3.org/1999/xlink" xmlns:sketch="http://www.bohemiancoding.com/sketch/ns">
    <!-- Generator: Sketch 3.0.3 (7892) - http://www.bohemiancoding.com/sketch -->
    <title>icon_512x512</title>
    <desc>Created with Sketch.</desc>
    <defs></defs>
    <g id="Page-1" stroke="none" stroke-width="1" fill="none" fill-rule="evenodd" sketch:type="MSPage">
        <g id="icon_512x512" sketch:type="MSArtboardGroup" fill="#FFFFFF">
            <g id="American_Express_logo" sketch:type="MSLayerGroup" transform="translate(90.000000, 91.000000)">
                <path d="M29.3755246,142.310459 L23.0156937,126.89841 L16.6922113,142.310459 L29.3755246,142.310459 Z M169.481757,136.173392 C168.204866,136.94417 166.694641,136.969823 164.885419,136.969823 L153.597423,136.969823 L153.597423,128.382827 L165.039021,128.382827 C166.658292,128.382827 168.347915,128.455124 169.445408,129.080141 C170.650775,129.643357 171.396507,130.842085 171.396507,132.497915 C171.396507,134.187562 170.687123,135.547208 169.481757,136.173392 L169.481757,136.173392 Z M250.00913,142.310459 L243.578947,126.89841 L237.18394,142.310459 L250.00913,142.310459 L250.00913,142.310459 Z M99.9011725,158.992367 L90.3754965,158.992367 L90.3403204,128.713993 L76.8667183,158.992367 L68.7082183,158.992367 L55.1994401,128.687173 L55.1994401,158.992367 L36.3005176,158.992367 L32.7301479,150.369223 L13.3833169,150.369223 L9.77659859,158.992367 L-0.315411972,158.992367 L16.3240352,120.332226 L30.1294648,120.332226 L45.9328944,156.935406 L45.9328944,120.332226 L61.0984648,120.332226 L73.2588275,146.558481 L84.4295704,120.332226 L99.9,120.332226 L99.9,158.992367 L99.9011725,158.992367 Z M137.86669,158.992367 L106.826165,158.992367 L106.826165,120.332226 L137.86669,120.332226 L137.86669,128.382827 L116.118507,128.382827 L116.118507,135.351307 L137.344912,135.351307 L137.344912,143.275972 L116.118507,143.275972 L116.118507,150.996572 L137.86669,150.996572 L137.86669,158.992367 L137.86669,158.992367 Z M181.632739,130.744134 C181.632739,136.908021 177.496035,140.09258 175.085303,141.048763 C177.118479,141.818375 178.855004,143.178021 179.681641,144.304452 C180.993708,146.227314 181.220007,147.944947 181.220007,151.397703 L181.220007,158.992367 L171.847933,158.992367 L171.812757,154.116996 C171.812757,151.790671 172.036711,148.445194 170.345915,146.5853 C168.98812,145.225654 166.918595,144.930636 163.573352,144.930636 L153.598595,144.930636 L153.598595,158.992367 L144.307426,158.992367 L144.307426,120.332226 L165.679225,120.332226 C170.427993,120.332226 173.926838,120.456996 176.930873,122.183958 C179.870419,123.910919 181.632739,126.431979 181.632739,130.744134 L181.632739,130.744134 Z M196.502831,158.992367 L187.021711,158.992367 L187.021711,120.332226 L196.502831,120.332226 L196.502831,158.992367 L196.502831,158.992367 Z M306.496014,158.992367 L293.328444,158.992367 L275.715792,129.975689 L275.715792,158.992367 L256.792246,158.992367 L253.176148,150.369223 L233.873873,150.369223 L230.365648,158.992367 L219.492729,158.992367 C214.976123,158.992367 209.257669,157.998869 206.019127,154.71636 C202.753616,151.433852 201.054613,146.987597 201.054613,139.957314 C201.054613,134.22371 202.070028,128.982191 206.063683,124.840283 C209.067718,121.754841 213.77193,120.332226 220.175144,120.332226 L229.170835,120.332226 L229.170835,128.616042 L220.363923,128.616042 C216.972951,128.616042 215.058201,129.117456 213.213803,130.906219 C211.629708,132.534064 210.542768,135.611343 210.542768,139.663463 C210.542768,143.805371 211.370577,146.791696 213.097722,148.742544 C214.528215,150.272438 217.127725,150.736537 219.573634,150.736537 L223.746687,150.736537 L236.842732,120.333392 L250.765415,120.333392 L266.49732,156.900424 L266.49732,120.333392 L280.64513,120.333392 L296.978546,147.258127 L296.978546,120.333392 L306.496014,120.333392 L306.496014,158.992367 L306.496014,158.992367 Z M-0.423285211,166.585866 L15.4528415,166.585866 L19.0325915,157.998869 L27.0468697,157.998869 L30.6172394,166.585866 L61.85475,166.585866 L61.85475,160.020848 L64.6430387,166.613852 L80.8592007,166.613852 L83.6474894,159.922898 L83.6474894,166.585866 L161.278701,166.585866 L161.242352,152.490318 L162.74437,152.490318 C163.796134,152.526466 164.103338,152.623251 164.103338,154.350212 L164.103338,166.585866 L204.254461,166.585866 L204.254461,163.304523 C207.493004,165.030318 212.530215,166.585866 219.158556,166.585866 L236.050099,166.585866 L239.665025,157.998869 L247.679303,157.998869 L251.214496,166.585866 L283.765246,166.585866 L283.765246,158.429152 L288.694585,166.585866 L314.778803,166.585866 L314.778803,112.666431 L288.964268,112.666431 L288.964268,119.034382 L285.349342,112.666431 L258.860599,112.666431 L258.860599,119.034382 L255.541151,112.666431 L219.761239,112.666431 C213.77193,112.666431 208.507246,113.497845 204.254461,115.814841 L204.254461,112.666431 L179.563215,112.666431 L179.563215,115.814841 C176.857004,113.426714 173.16938,112.666431 169.069025,112.666431 L78.8623732,112.666431 L72.8097465,126.592898 L66.5941373,112.666431 L38.1812641,112.666431 L38.1812641,119.034382 L35.0599754,112.666431 L10.8283627,112.666431 L-0.424457746,138.30265 L-0.424457746,166.585866 L-0.423285211,166.585866 Z" id="Shape" sketch:type="MSShapeGroup"></path>
                <path d="M330.167155,195.102297 L313.232229,195.102297 C311.541433,195.102297 310.418144,195.165265 309.471908,195.800777 C308.491669,196.426961 308.114113,197.356325 308.114113,198.583039 C308.114113,200.041802 308.941923,201.034134 310.146116,201.463251 C311.126356,201.80258 312.179292,201.901696 313.727039,201.901696 L318.763077,202.035795 C323.844845,202.160565 327.236989,203.029293 329.305342,205.148057 C329.681725,205.443074 329.908025,205.77424 330.167155,206.105406 L330.167155,195.102297 Z M330.167155,220.596254 C327.910025,223.878763 323.511845,225.542756 317.557711,225.542756 L299.613232,225.542756 L299.613232,217.250777 L317.485014,217.250777 C319.257887,217.250777 320.49843,217.018728 321.245335,216.293428 C321.892574,215.69523 322.344,214.826502 322.344,213.771201 C322.344,212.64477 321.892574,211.750389 321.208986,211.213993 C320.534778,210.623958 319.553366,210.35576 317.935268,210.35576 C309.210433,210.060742 298.325789,210.623958 298.325789,198.387138 C298.325789,192.778304 301.906711,186.874452 311.657514,186.874452 L330.165982,186.874452 L330.165982,179.180671 L312.969581,179.180671 C307.77994,179.180671 304.010239,180.416714 301.340377,182.33841 L301.340377,179.180671 L275.90457,179.180671 C271.837046,179.180671 267.062482,180.183498 264.80418,182.33841 L264.80418,179.180671 L219.382511,179.180671 L219.382511,182.33841 C215.767585,179.745053 209.668056,179.180671 206.852799,179.180671 L176.89218,179.180671 L176.89218,182.33841 C174.032366,179.584134 167.672535,179.180671 163.796134,179.180671 L130.265144,179.180671 L122.592074,187.438834 L115.405606,179.180671 L65.3172465,179.180671 L65.3172465,233.13742 L114.462887,233.13742 L122.369292,224.748657 L129.817236,233.13742 L160.110856,233.16424 L160.110856,220.471484 L163.089095,220.471484 C167.108546,220.533286 171.849106,220.372367 176.031539,218.574276 L176.031539,233.136254 L201.018264,233.136254 L201.018264,219.073357 L202.22363,219.073357 C203.761996,219.073357 203.913254,219.136325 203.913254,220.665053 L203.913254,233.135088 L279.818493,233.135088 C284.637613,233.135088 289.674824,231.908375 292.464285,229.682332 L292.464285,233.135088 L316.541123,233.135088 C321.551366,233.135088 326.444356,232.436608 330.167155,230.647845 L330.167155,220.596254 L330.167155,220.596254 Z M293.102144,205.148057 C294.911366,207.010283 295.881053,209.361095 295.881053,213.340919 C295.881053,221.659717 290.655063,225.542756 281.284162,225.542756 L263.186081,225.542756 L263.186081,217.250777 L281.211465,217.250777 C282.973785,217.250777 284.223708,217.018728 285.006961,216.293428 C285.645993,215.69523 286.104454,214.826502 286.104454,213.771201 C286.104454,212.64477 285.608472,211.750389 284.970613,211.213993 C284.260056,210.623958 283.279817,210.35576 281.661718,210.35576 C272.97206,210.060742 262.089761,210.623958 262.089761,198.387138 C262.089761,192.778304 265.633162,186.874452 275.374585,186.874452 L294.002651,186.874452 L294.002651,195.104629 L276.957507,195.104629 C275.267884,195.104629 274.169218,195.167597 273.234708,195.80311 C272.216947,196.429293 271.839391,197.358657 271.839391,198.585371 C271.839391,200.044134 272.703549,201.036466 273.872567,201.465583 C274.852806,201.804912 275.905743,201.904028 277.488665,201.904028 L282.490701,202.038127 C287.534947,202.160565 290.997444,203.028127 293.102144,205.148057 L293.102144,205.148057 Z M209.256496,202.759929 C208.013609,203.493392 206.476415,203.55636 204.668366,203.55636 L193.38037,203.55636 L193.38037,194.871413 L204.821968,194.871413 C206.476415,194.871413 208.132035,194.906396 209.256496,195.569894 C210.46069,196.196078 211.180627,197.39364 211.180627,199.048304 C211.180627,200.702968 210.46069,202.035795 209.256496,202.759929 L209.256496,202.759929 Z M214.86825,207.572332 C216.936602,208.331449 218.627398,209.692261 219.420032,210.818693 C220.732099,212.706572 220.922049,214.468516 220.95957,217.876961 L220.95957,225.542756 L211.63088,225.542756 L211.63088,220.7047 C211.63088,218.378375 211.856007,214.933781 210.128863,213.135689 C208.771067,211.750389 206.701542,211.419223 203.311743,211.419223 L193.381542,211.419223 L193.381542,225.542756 L184.044644,225.542756 L184.044644,186.873286 L205.497349,186.873286 C210.20156,186.873286 213.627708,187.079682 216.677472,188.698198 C219.609982,190.460141 221.45438,192.873922 221.45438,197.285194 C221.453208,203.457244 217.314158,206.60682 214.86825,207.572332 L214.86825,207.572332 Z M226.6065,186.873286 L257.618884,186.873286 L257.618884,194.870247 L235.860148,194.870247 L235.860148,201.90053 L257.087725,201.90053 L257.087725,209.790212 L235.860148,209.790212 L235.860148,217.483993 L257.618884,217.518975 L257.618884,225.542756 L226.6065,225.542756 L226.6065,186.873286 L226.6065,186.873286 Z M163.91456,204.71894 L151.906627,204.71894 L151.906627,194.871413 L164.022433,194.871413 C167.377056,194.871413 169.705711,196.23106 169.705711,199.612686 C169.705711,202.956996 167.48493,204.71894 163.91456,204.71894 L163.91456,204.71894 Z M142.651806,222.025866 L128.38557,206.274488 L142.651806,191.023357 L142.651806,222.025866 L142.651806,222.025866 Z M105.809577,217.483993 L82.9639014,217.483993 L82.9639014,209.790212 L103.363669,209.790212 L103.363669,201.90053 L82.9639014,201.90053 L82.9639014,194.870247 L106.259831,194.870247 L116.423366,206.139223 L105.809577,217.483993 L105.809577,217.483993 Z M179.681641,199.612686 C179.681641,210.354594 171.622806,212.572473 163.500655,212.572473 L151.906627,212.572473 L151.906627,225.542756 L133.846067,225.542756 L122.404468,212.741555 L110.513789,225.542756 L73.7079085,225.542756 L73.7079085,186.873286 L111.080123,186.873286 L122.512342,199.548551 L134.331496,186.873286 L164.022433,186.873286 C171.396507,186.873286 179.681641,188.903428 179.681641,199.612686 L179.681641,199.612686 Z" id="Shape" sketch:type="MSShapeGroup"></path>
            </g>
        </g>
    </g>
</svg>