<?xml version="1.0" encoding="UTF-8" standalone="no"?>
<svg width="512px" height="512px" viewBox="0 0 512 512" version="1.1" xmlns="http://www.w3.org/2000/svg" xmlns:xlink="http://www.w3.org/1999/xlink" xmlns:sketch="http://www.bohemiancoding.com/sketch/ns">
    <!-- Generator: Sketch 3.0.3 (7892) - http://www.bohemiancoding.com/sketch -->
    <title>icon_512x512</title>
    <desc>Created with Sketch.</desc>
    <defs></defs>
    

    
    <g id="Page-1" stroke="none" stroke-width="1" fill="none" fill-rule="evenodd" sketch:type="MSPage">
        <g id="icon_512x512" sketch:type="MSArtboardGroup">
            <g id="「-A-N-R-C-」" sketch:type="MSLayerGroup" transform="translate(48.000000, 222.000000)">
                <path d="M400.75,32.5 L400.75,67.503418" id="Line" stroke="#FFFFFF" stroke-width="5.5" stroke-linecap="square" sketch:type="MSShapeGroup"></path>
                <path d="M1.75,1.5 L1.75,35.8656807" id="Line-3" stroke="#FFFFFF" stroke-width="5.5" stroke-linecap="square" sketch:type="MSShapeGroup"></path>
                <path d="M9.5,-5.39096692 L9.5,8.86724281" id="Line-4" stroke="#FFFFFF" stroke-width="5.5" stroke-linecap="square" sketch:type="MSShapeGroup" transform="translate(9.250000, 1.750000) rotate(-90.000000) translate(-9.250000, -1.750000) "></path>
                <path d="M393.5,60.6090331 L393.5,74.8672428" id="Line-6" stroke="#FFFFFF" stroke-width="5.5" stroke-linecap="square" sketch:type="MSShapeGroup" transform="translate(393.250000, 67.750000) rotate(-90.000000) translate(-393.250000, -67.750000) "></path>
                <path d="M97.2949219,62 L87.9003906,62 L87.9003906,49.28125 L54.875,49.28125 L54.875,62 L45.4804688,62 L45.4804688,36.0927734 C45.4804688,32.3108535 46.1308529,28.830094 47.4316406,25.6503906 C48.7324284,22.4706872 50.5390509,19.7366651 52.8515625,17.4482422 C55.1640741,15.1598193 57.8980962,13.377285 61.0537109,12.1005859 C64.2093257,10.8238868 67.6539527,10.1855469 71.3876953,10.1855469 L92.5615234,10.1855469 C93.2119173,10.1855469 93.826169,10.3059884 94.4042969,10.546875 C94.9824248,10.7877616 95.4882791,11.1249978 95.921875,11.5585938 C96.3554709,11.9921897 96.6927071,12.498044 96.9335938,13.0761719 C97.1744804,13.6542998 97.2949219,14.2685514 97.2949219,14.9189453 L97.2949219,62 Z M54.875,39.8867188 L87.9003906,39.8867188 L87.9003906,19.5800781 L71.3876953,19.5800781 C71.0986314,19.5800781 70.4904018,19.6222327 69.5629883,19.706543 C68.6355748,19.7908533 67.5636454,20.0016259 66.347168,20.3388672 C65.1306905,20.6761085 63.8479885,21.1940069 62.4990234,21.8925781 C61.1500584,22.5911493 59.9095109,23.5546814 58.7773438,24.7832031 C57.6451766,26.0117249 56.711755,27.5473541 55.9770508,29.3901367 C55.2423466,31.2329194 54.875,33.4671093 54.875,36.0927734 L54.875,39.8867188 Z M184.049805,57.9892578 C184.049805,58.6637404 183.923341,59.2900362 183.67041,59.8681641 C183.417479,60.446292 183.080243,60.9461242 182.658691,61.3676758 C182.23714,61.7892274 181.737308,62.1204415 181.15918,62.3613281 C180.581052,62.6022147 179.9668,62.7226562 179.316406,62.7226562 C178.738278,62.7226562 178.154137,62.6142589 177.563965,62.3974609 C176.973793,62.180663 176.449872,61.8313826 175.992188,61.3496094 L141.666016,25.5058594 L141.666016,62 L132.271484,62 L132.271484,14.1962891 C132.271484,13.2327426 132.542478,12.3595417 133.084473,11.5766602 C133.626468,10.7937786 134.319006,10.2096373 135.162109,9.82421875 C136.05339,9.46288882 136.968745,9.37255769 137.908203,9.55322266 C138.847661,9.73388762 139.654619,10.1734991 140.329102,10.8720703 L174.655273,46.6796875 L174.655273,10.1855469 L184.049805,10.1855469 L184.049805,57.9892578 Z M270.804688,27.6015625 C270.804688,29.7454534 270.539716,31.6604733 270.009766,33.3466797 C269.479815,35.032886 268.763188,36.5203386 267.859863,37.809082 C266.956538,39.0978255 265.914719,40.1998652 264.734375,41.1152344 C263.554031,42.0306035 262.319505,42.7833629 261.030762,43.3735352 C259.742018,43.9637074 258.44125,44.3912747 257.128418,44.65625 C255.815586,44.9212253 254.58106,45.0537109 253.424805,45.0537109 L273.044922,62 L258.519531,62 L238.935547,45.0537109 L232.178711,45.0537109 L232.178711,35.6591797 L253.424805,35.6591797 C254.605149,35.562825 255.683101,35.31592 256.658691,34.918457 C257.634282,34.5209941 258.477373,33.9850294 259.187988,33.3105469 C259.898604,32.6360643 260.446613,31.8230842 260.832031,30.871582 C261.21745,29.9200799 261.410156,28.8300843 261.410156,27.6015625 L261.410156,21.6757812 C261.410156,21.1458307 261.343913,20.7423516 261.211426,20.465332 C261.078938,20.1883124 260.91032,19.9835619 260.705566,19.8510742 C260.500813,19.7185866 260.284018,19.6402996 260.055176,19.6162109 C259.826333,19.5921223 259.615561,19.5800781 259.422852,19.5800781 L228.420898,19.5800781 L228.420898,62 L219.026367,62 L219.026367,14.9189453 C219.026367,14.2685514 219.146809,13.6542998 219.387695,13.0761719 C219.628582,12.498044 219.959796,11.9921897 220.381348,11.5585938 C220.802899,11.1249978 221.302731,10.7877616 221.880859,10.546875 C222.458987,10.3059884 223.085283,10.1855469 223.759766,10.1855469 L259.422852,10.1855469 C261.518565,10.1855469 263.289055,10.5649376 264.734375,11.3237305 C266.179695,12.0825233 267.353999,13.0340112 268.257324,14.1782227 C269.160649,15.3224341 269.811033,16.5569595 270.208496,17.8818359 C270.605959,19.2067124 270.804688,20.4472598 270.804688,21.6035156 L270.804688,27.6015625 Z M350.296875,62 L316.404297,62 C315.537105,62 314.603683,61.8976247 313.604004,61.6928711 C312.604324,61.4881175 311.616704,61.1689475 310.641113,60.7353516 C309.665522,60.3017556 308.732101,59.7417027 307.84082,59.0551758 C306.94954,58.3686489 306.160648,57.5376025 305.474121,56.5620117 C304.787594,55.5864209 304.239585,54.4542708 303.830078,53.1655273 C303.420571,51.8767839 303.21582,50.4254638 303.21582,48.8115234 L303.21582,23.3740234 C303.21582,22.5068316 303.318196,21.5734099 303.522949,20.5737305 C303.727703,19.574051 304.046873,18.5864307 304.480469,17.6108398 C304.914065,16.635249 305.48014,15.7018274 306.178711,14.8105469 C306.877282,13.9192664 307.714351,13.1303745 308.689941,12.4438477 C309.665532,11.7573208 310.79166,11.2093119 312.068359,10.7998047 C313.345058,10.3902974 314.790357,10.1855469 316.404297,10.1855469 L350.296875,10.1855469 L350.296875,19.5800781 L316.404297,19.5800781 C315.175775,19.5800781 314.236331,19.9052702 313.585938,20.5556641 C312.935544,21.2060579 312.610352,22.16959 312.610352,23.4462891 L312.610352,48.8115234 C312.610352,50.0159565 312.941566,50.9493782 313.604004,51.6118164 C314.266442,52.2742546 315.199864,52.6054688 316.404297,52.6054688 L350.296875,52.6054688 L350.296875,62 Z" id="A-N-R-C" fill="#FFFFFF" sketch:type="MSShapeGroup"></path>
            </g>
        </g>
    </g>
</svg>