<?xml version="1.0" encoding="UTF-8" standalone="no"?>
<svg width="512px" height="512px" viewBox="0 0 512 512" version="1.1" xmlns="http://www.w3.org/2000/svg" xmlns:xlink="http://www.w3.org/1999/xlink" xmlns:sketch="http://www.bohemiancoding.com/sketch/ns">
    <!-- Generator: Sketch 3.0.3 (7892) - http://www.bohemiancoding.com/sketch -->
    <title>icon_512x512</title>
    <desc>Created with Sketch.</desc>
    <defs></defs>
    <g id="Page-1" stroke="none" stroke-width="1" fill="none" fill-rule="evenodd" sketch:type="MSPage">
        <g id="icon_512x512" sketch:type="MSArtboardGroup" fill="#20D2FF">
            <g id="Group" sketch:type="MSLayerGroup" transform="translate(51.000000, 175.000000)">
                <g transform="translate(0.403750, -0.010410)" id="Shape" sketch:type="MSShapeGroup">
                    <path d="M225.712772,35.1473672 C188.970637,35.1473672 161.174412,63.6050542 161.174412,98.8586068 C161.174412,136.023497 190.142125,162.569846 225.712772,162.569846 C261.28342,162.569846 290.144634,136.023497 290.144634,98.8586068 C290.144634,63.6050542 262.454908,35.1473672 225.712772,35.1473672 L225.712772,35.1473672 Z M225.712772,68.8081388 C241.581115,68.7019534 254.573986,82.1874991 254.573986,98.8586068 C254.573986,115.423529 241.581115,128.909075 225.712772,128.909075 C209.84443,128.909075 196.851558,115.423529 196.851558,98.8586068 C196.851558,82.1874991 209.84443,68.8081388 225.712772,68.8081388 L225.712772,68.8081388 Z"></path>
                    <path d="M409.561978,140.266665 C409.561978,152.584171 399.551077,162.565599 387.197199,162.565599 C374.843322,162.565599 364.832421,152.584171 364.832421,140.266665 C364.832421,127.949159 374.843322,117.967731 387.197199,117.967731 C399.551077,117.967731 409.561978,127.949159 409.561978,140.266665 L409.561978,140.266665 Z"></path>
                    <path d="M344.459095,158.32243 L309.314444,158.32243 L309.314444,0.106185399 L344.459095,0.106185399 L344.459095,158.32243 L344.459095,158.32243 Z"></path>
                    <path d="M0.467505279,158.32243 L64.3668718,0.106185399 L97.3815445,0.106185399 L160.215922,158.32243 L115.486365,158.32243 L108.031439,136.023497 L52.651988,136.023497 L45.1970619,158.32243 L0.467505279,158.32243 L0.467505279,158.32243 Z M97.3815445,103.106023 L64.3668718,103.106023 L80.8742082,50.0133231 L97.3815445,103.106023 L97.3815445,103.106023 Z"></path>
                </g>
            </g>
        </g>
    </g>
</svg>