<?xml version="1.0" encoding="UTF-8" standalone="no"?>
<svg width="512px" height="512px" viewBox="0 0 512 512" version="1.1" xmlns="http://www.w3.org/2000/svg" xmlns:xlink="http://www.w3.org/1999/xlink" xmlns:sketch="http://www.bohemiancoding.com/sketch/ns">
    <!-- Generator: Sketch 3.0.3 (7892) - http://www.bohemiancoding.com/sketch -->
    <title>icon_512x512</title>
    <desc>Created with Sketch.</desc>
    <defs></defs>
    <g id="Page-1" stroke="none" stroke-width="1" fill="none" fill-rule="evenodd" sketch:type="MSPage">
        <g id="icon_512x512" sketch:type="MSArtboardGroup" fill="#FFFFFF">
            <path d="M87.326375,211.040508 L164.9865,211.040508 L161.692375,236.475534 L84.167625,236.475534 L87.326375,211.040508 Z M82.76875,245.82731 L160.519125,245.82731 L158.1275,266.518681 L109.527875,266.518681 L108.264375,276.412589 L156.95425,276.412589 L153.930875,300.040508 L76,300.040508 L82.76875,245.82731 Z M166.25,236.475534 C166.25,236.475534 166.7915,227.801422 168.9575,223.283655 C170.988125,219.036955 173.695625,215.964874 178.25325,213.389747 C180.96075,211.944062 185.789125,211.040508 185.789125,211.040508 L325.676625,211.040508 C325.676625,211.040508 331.542875,211.130864 334.069875,212.16995 C336.777375,213.299391 340.70325,214.970965 342.779,220.030864 C344.809625,224.864874 344.4035,226.446092 344.4035,231.280102 C344.4035,236.023757 344.268125,236.475534 344.268125,236.475534 L166.25,236.475534 Z M164.9865,246.053199 L236.55475,246.053199 C236.55475,246.053199 242.917375,246.053199 245.8505,247.815128 C248.919,249.848122 250.317875,252.332894 251.220375,256.263351 C252.07775,260.193808 249.686125,280.026803 248.28725,284.860813 C246.753,289.604468 244.948,294.077056 237.5475,297.781625 C230.914125,301.16995 220.85125,300.040508 220.85125,300.040508 L159.03,300.040508 L162.685125,276.412589 L220.5805,276.412589 L221.75375,266.383148 L181.818125,266.383148 C181.818125,266.383148 175.320125,267.286701 169.22825,262.000914 C165.528,258.838478 165.121875,254.004468 164.89625,251.881117 C164.6255,250.66132 164.9865,246.053199 164.9865,246.053199 L164.9865,246.053199 Z M258.079375,246.053199 L342.50825,246.053199 C342.50825,246.053199 341.741125,255.811574 339.43975,259.290254 C337.138375,262.904468 335.10775,264.847107 331.272125,265.705483 C327.34625,266.609036 321.48,266.609036 321.48,266.609036 L284.74825,266.609036 L280.912625,300.040508 L251.446,300.040508 L258.079375,246.053199 Z M348.239125,236.701422 L435.962125,236.701422 C435.962125,236.701422 437.63175,229.021219 436.72925,224.187209 C435.82675,219.353199 433.66075,216.100407 430.095875,213.751168 C425.402875,210.453199 416.829125,211.040508 416.9645,211.040508 L351.804,211.040508 L348.239125,236.701422 Z M347.111,246.053199 L376.1715,246.053199 L369.538125,300.040508 L340.70325,300.040508 L347.111,246.053199 Z M405.50275,246.279087 L434.2925,246.279087 L427.659125,300.040508 L399.00475,300.040508 L405.50275,246.279087 Z" id="Shape" sketch:type="MSShapeGroup"></path>
        </g>
    </g>
</svg>