<?xml version="1.0" encoding="UTF-8" standalone="no"?>
<svg width="512px" height="512px" viewBox="0 0 512 512" version="1.1" xmlns="http://www.w3.org/2000/svg" xmlns:xlink="http://www.w3.org/1999/xlink" xmlns:sketch="http://www.bohemiancoding.com/sketch/ns">
    <!-- Generator: Sketch 3.0.3 (7892) - http://www.bohemiancoding.com/sketch -->
    <title>icon_512x512</title>
    <desc>Created with Sketch.</desc>
    <defs></defs>
    <g id="Page-1" stroke="none" stroke-width="1" fill="none" fill-rule="evenodd" sketch:type="MSPage">
        <g id="icon_512x512" sketch:type="MSArtboardGroup" fill="#FFFFFF">
            <g id="Ebene_x0020_1" sketch:type="MSLayerGroup" transform="translate(102.000000, 188.000000)">
                <g id="_153574520" sketch:type="MSShapeGroup">
                    <path d="M39.6037575,36.7329803 C44.3859188,36.7329803 49.9150875,35.5385718 56.1926156,33.149369 L56.1926156,48.5290662 C54.7974806,49.0265113 52.8052031,49.5741254 50.2144313,50.1719085 C51.011265,52.4611592 51.4100681,54.6014465 51.4100681,56.5923845 C51.4100681,62.9634634 49.4923369,68.5125423 45.6564881,73.2411648 C41.8204463,77.9694014 36.8633138,80.7827254 30.78567,81.6776634 C26.801115,82.2752535 24.8082581,84.4157338 24.8082581,88.0987183 C24.8082581,89.3928859 25.4558063,90.6870535 26.7510956,91.9806423 C28.4448019,93.872593 30.9353419,95.0675803 34.2231019,95.5650254 C48.471285,97.7545169 55.5943144,103.677741 55.5943144,113.333539 C55.5943144,128.764177 46.3785825,136.479014 27.9467325,136.479014 C20.3744944,136.479014 14.1469856,135.135256 9.26575125,132.447162 C3.08787563,129.062683 -0.000193125,123.736856 -0.000193125,116.469296 C-0.000193125,108.107665 4.6326825,102.383959 13.8978544,99.2983718 L13.8978544,98.9996732 C10.5108281,96.909362 8.817315,93.7238225 8.817315,89.442862 C8.817315,83.8681197 10.4113688,80.3834958 13.5996694,78.9911127 L13.5996694,78.6920282 C10.4113688,77.5971859 7.57146563,75.1076451 5.0807325,71.2257211 C2.29104188,67.0450986 0.896293125,62.5653915 0.896293125,57.7869859 C0.896293125,50.6193775 3.43723875,44.6471423 8.51797125,39.8687366 C13.4003644,35.3890296 19.2288769,33.149369 26.003895,33.149369 C30.8859019,33.149369 35.4187388,34.3439704 39.6037575,36.7329803 L39.6037575,36.7329803 Z M40.2012863,115.27508 L40.2012863,115.27508 C40.2012863,110.197976 36.01704,107.65981 27.6473888,107.65981 C19.5770813,107.65981 15.5421206,110.297735 15.5421206,115.573972 C15.5421206,120.749677 19.9262513,123.338013 28.6935469,123.338013 C36.3654375,123.338013 40.2012863,120.651076 40.2012863,115.27508 L40.2012863,115.27508 Z M17.1863869,57.9361423 L17.1863869,57.9361423 C17.1863869,64.8052451 20.3250544,68.2397 26.6014237,68.2397 C32.6790675,68.2397 35.7176962,64.7550761 35.7176962,57.7869859 C35.7176962,54.9001451 35.0203219,52.411762 33.6255731,50.3206789 C31.9318669,48.0314282 29.5906125,46.8862239 26.6014237,46.8862239 C20.3250544,46.8862239 17.1863869,50.5699803 17.1863869,57.9361423 L17.1863869,57.9361423 Z" id="_153577136"></path>
                    <path d="M72.0396806,22.2484141 C69.1503375,22.2484141 66.6849037,21.1539577 64.6420275,18.9635014 C62.5997306,16.7736239 61.5782925,14.1858676 61.5782925,11.1992676 C61.5782925,8.11310141 62.5997306,5.47556197 64.6420275,3.28510563 C66.6849037,1.09522817 69.1503375,-1.77635684e-15 72.0396806,-1.77635684e-15 C74.8295644,-1.77635684e-15 77.2457512,1.09522817 79.2880481,3.28510563 C81.3307312,5.47556197 82.3517831,8.11310141 82.3517831,11.1992676 C82.3517831,14.1858676 81.3307312,16.7736239 79.2880481,18.9635014 C77.2457512,21.1539577 74.8295644,22.2484141 72.0396806,22.2484141 L72.0396806,22.2484141 Z" id="_153577064"></path>
                    <path d="M63.5215162,100.193503 C63.7206281,98.2033366 63.8197012,94.8190507 63.8197012,90.0402592 L63.8197012,43.6011183 C63.8197012,38.9230507 63.7206281,35.6873423 63.5215162,33.8957296 L80.4093319,33.8957296 C80.2096406,35.7872944 80.1099881,38.9230507 80.1099881,43.3031915 L80.1099881,89.1439704 C80.1099881,94.2212676 80.2096406,97.9044451 80.4093319,100.193503 L63.5215162,100.193503 L63.5215162,100.193503 Z" id="_153576992"></path>
                    <path d="M111.333666,33.8957296 L124.335227,33.8957296 L124.335227,48.3795239 C123.837351,48.3795239 122.915758,48.3301268 121.570449,48.2303676 C120.225527,48.1309944 118.955344,48.0808254 117.759514,48.0808254 L111.333666,48.0808254 L111.333666,75.8541986 C111.333666,82.524169 113.525248,85.8586718 117.909186,85.8586718 C120.998027,85.8586718 123.787138,85.0133239 126.278837,83.3205056 L126.278837,98.251962 C122.592274,100.243672 118.158317,101.238755 112.977159,101.238755 C105.704072,101.238755 100.673166,98.6508056 97.8832819,93.4747141 C95.7911587,89.5918254 94.7444212,83.4706268 94.7444212,75.1076451 L94.7444212,48.3795239 L94.8940931,48.3795239 L94.8940931,48.0808254 L92.6522981,47.9320549 C91.3570087,47.9320549 89.6633025,48.0808254 87.5711794,48.3795239 L87.5711794,33.8957296 L94.8940931,33.8957296 L94.8940931,28.0722648 C94.8940931,25.2847972 94.7444212,23.0449437 94.44585,21.3527042 L111.781716,21.3527042 C111.483144,23.244269 111.333666,25.3845563 111.333666,27.7731803 L111.333666,33.8957296 L111.333666,33.8957296 Z" id="_153576920"></path>
                    <path d="M163.828131,33.4476817 C159.544425,33.4476817 155.060835,34.9409817 150.37794,37.9268099 L150.37794,11.7964718 C150.37794,6.1225493 150.477786,2.38939577 150.676704,0.597783099 L133.63941,0.597783099 C133.938754,2.19045634 134.088039,5.92303099 134.088039,11.7964718 L134.088039,90.7868127 C134.088039,95.3651211 133.938754,98.5020352 133.63941,100.193503 L150.975662,100.193503 C150.975662,99.8948042 150.876589,98.6758901 150.676704,96.5356028 C150.477786,94.3951225 150.37794,92.4782803 150.37794,90.7868127 L150.37794,54.0538324 C153.865198,50.7689197 157.252417,49.1268493 160.540371,49.1268493 C164.326779,49.1268493 167.215929,51.0174493 169.208786,54.8 C170.702801,57.7869859 171.450581,61.5201394 171.450581,65.9998465 L171.300909,86.1571775 C171.300909,89.5428141 171.052164,94.2212676 170.553902,100.193503 L188.636582,100.193503 C188.238744,97.7055056 188.039053,93.1260394 188.039053,86.4558761 L188.039053,65.9998465 C188.039053,57.338938 186.096602,49.9723901 182.210541,43.9002028 C177.82641,36.9317268 171.699326,33.4476817 163.828131,33.4476817 L163.828131,33.4476817 Z" id="_153576848"></path>
                    <path d="M216.738394,100.791286 C208.867005,100.791286 203.038879,97.306662 199.25247,90.3378 C196.263861,84.6646493 194.769266,77.2479324 194.769266,68.0901577 L194.769266,47.6333563 C194.769266,40.8638197 194.570154,36.2847394 194.171351,33.8957296 L212.105518,33.8957296 C211.806174,36.085607 211.607449,40.7644465 211.507217,47.9320549 L211.358317,68.0901577 C211.358317,73.7636944 212.006059,77.8457155 213.300769,80.3337127 C214.795942,83.4206507 217.535614,84.9633479 221.520748,84.9633479 C224.310632,84.9633479 227.449299,83.3205056 230.936364,80.0361718 L230.936364,43.3031915 C230.936364,41.6103732 230.836132,39.6692183 230.637214,37.4793408 C230.436943,35.2888845 230.338256,34.0950549 230.338256,33.8957296 L247.673736,33.8957296 C247.475203,35.587969 247.374971,38.7235324 247.374971,43.3031915 L247.374971,88.9952 C247.374971,94.8676761 247.475203,98.6008296 247.673736,100.193503 L231.384221,100.193503 L231.384221,94.8190507 C226.800786,98.7995761 221.919165,100.791286 216.738394,100.791286 L216.738394,100.791286 Z" id="_153576776"></path>
                    <path d="M283.996106,100.641358 C278.616803,100.641358 274.133213,98.7005887 270.545723,94.8190507 L270.545723,100.193503 L254.704065,100.193503 C255.003409,98.5020352 255.153467,95.3651211 255.153467,90.7868127 L255.153467,11.7964718 C255.153467,5.92303099 255.003409,2.19045634 254.704065,0.597783099 L271.741746,0.597783099 C271.541668,2.38939577 271.442981,6.1225493 271.442981,11.7964718 L271.442981,37.7780394 C276.025258,34.8915845 280.509814,33.4476817 284.893172,33.4476817 C292.763981,33.4476817 298.94205,36.9317268 303.425254,43.9002028 C307.210697,49.9723901 309.103708,57.338938 309.103708,65.9998465 C309.103708,74.8591155 307.111431,82.5739521 303.126296,89.1439704 C298.343749,96.8092169 291.967148,100.641358 283.996106,100.641358 L283.996106,100.641358 Z M281.754891,49.1268493 L281.754891,49.1268493 C278.466358,49.1268493 275.029313,50.7689197 271.442981,54.0538324 L271.442981,79.8862437 C274.631282,82.971638 277.76937,84.5158789 280.857825,84.5158789 C284.743114,84.5158789 287.682669,82.3753986 289.675719,78.0942451 C291.270159,74.7101521 292.066993,70.678107 292.066993,65.9998465 C292.066993,54.7509887 288.629561,49.1268493 281.754891,49.1268493 L281.754891,49.1268493 Z" id="_153576704"></path>
                </g>
            </g>
        </g>
    </g>
</svg>