<?xml version="1.0" encoding="UTF-8" standalone="no"?>
<svg width="512px" height="512px" viewBox="0 0 512 512" version="1.1" xmlns="http://www.w3.org/2000/svg" xmlns:xlink="http://www.w3.org/1999/xlink" xmlns:sketch="http://www.bohemiancoding.com/sketch/ns">
    <!-- Generator: Sketch 3.0.3 (7892) - http://www.bohemiancoding.com/sketch -->
    <title>icon_512x512</title>
    <desc>Created with Sketch.</desc>
    <defs></defs>
    <g id="Page-1" stroke="none" stroke-width="1" fill="none" fill-rule="evenodd" sketch:type="MSPage">
        <g id="icon_512x512" sketch:type="MSArtboardGroup" fill="#FFFFFF">
            <g id="LG_Logo" sketch:type="MSLayerGroup" transform="translate(81.000000, 174.000000)">
                <g id="g2490" sketch:type="MSShapeGroup">
                    <g id="Group">
                        <path d="M79.2036,46.2307627 L79.2036,118.582564 L102.1895,118.582564 L102.1895,112.082542 L85.8487,112.082542 L85.8487,46.2307627 L79.2036,46.2307627" id="path2498"></path>
                        <path d="M56.1589,66.0097881 C61.6084,66.0097881 66.0947,61.5883475 66.0947,56.1293644 C66.0947,50.6410169 61.6084,46.2104873 56.1589,46.2104873 C50.7087,46.2104873 46.2518,50.6417161 46.2518,56.1293644 C46.2518,61.5890466 50.7087,66.0097881 56.1589,66.0097881" id="path2500"></path>
                        <path d="M85.8487,13.5020339 C84.9443,13.4775636 83.3784,13.4775636 82.5286,13.4775636 C44.4283,13.4775636 13.433,44.3710169 13.433,82.4440678 C13.433,100.85625 20.6367,118.202924 33.6462,131.216949 C46.7194,144.25964 64.029,151.509153 82.5286,151.509153 C100.9883,151.509153 118.3217,144.25964 131.3858,131.216949 C144.3953,118.203623 151.5591,100.85625 151.5591,82.4440678 L151.5591,79.2908898 L102.2532,79.2908898 L102.2532,85.6958263 L145.0176,85.6958263 C145.0176,85.8251695 144.9882,86.5292161 144.9882,86.6732415 C142.8833,119.249555 115.5994,144.96089 82.5286,144.96089 C65.828,144.96089 50.0367,138.486038 38.2326,126.706716 C26.4131,114.901525 19.8681,99.1538136 19.8681,82.4391737 C19.8681,65.7385169 26.4145,50.0215678 38.2326,38.2212712 C50.0374,26.390911 65.8294,19.8776059 82.53,19.8776059 C83.2713,19.8776059 85.0297,19.9167585 85.8501,19.932839 L85.8487,13.5020339" id="path2502"></path>
                    </g>
                    <path d="M206.3691,41.2311229 L230.7158,41.2311229 L230.7158,103.073962 L266.9555,103.073962 L266.9555,123.670297 L206.367,123.670297 L206.3691,41.2311229" id="path2504"></path>
                    <path d="M329.1701,115.462246 C324.8756,122.021695 316.9495,125.767754 306.9332,125.767754 C285.4425,125.767754 271.4628,108.660191 271.4628,82.3587712 C271.4628,55.6022034 287.3052,39.1420551 313.2038,39.1420551 C323.6702,39.1420551 332.535,41.891822 339.3152,47.1417585 C346.2529,52.6391949 348.8968,58.0100847 350.0007,68.8679237 L324.4409,68.8679237 C323.7808,62.4860593 319.0453,58.4337712 312.6557,58.4337712 C302.8613,58.4337712 297.1143,67.5500212 297.1143,82.6859746 C297.1143,98.0246822 303.0839,107.226928 313.0904,107.226928 C321.1404,107.226928 325.647,102.858623 327.5195,92.9635169 L311.7758,92.9635169 L311.7758,75.6448093 L350,75.6448093 L350,123.668199 L329.1694,123.668199 L329.1694,115.462246" id="path2506"></path>
                </g>
            </g>
        </g>
    </g>
</svg>