<?xml version="1.0" encoding="UTF-8" standalone="no"?>
<svg width="512px" height="512px" viewBox="0 0 512 512" version="1.1" xmlns="http://www.w3.org/2000/svg" xmlns:xlink="http://www.w3.org/1999/xlink" xmlns:sketch="http://www.bohemiancoding.com/sketch/ns">
    <!-- Generator: Sketch 3.0.3 (7892) - http://www.bohemiancoding.com/sketch -->
    <title>icon_512x512</title>
    <desc>Created with Sketch.</desc>
    <defs></defs>
    <g id="Page-1" stroke="none" stroke-width="1" fill="none" fill-rule="evenodd" sketch:type="MSPage">
        <g id="icon_512x512" sketch:type="MSArtboardGroup" fill="#FFFFFF">
            <g id="layer1" sketch:type="MSLayerGroup" transform="translate(76.000000, 212.000000)">
                <path d="M36.0526617,23.2319219 L49.0948182,23.2319219 L67.153177,52.1720703 L67.1427266,23.2319219 L80.0908225,23.2319219 L80.0908225,64.7317852 L67.1636274,64.7317852 L49.011208,35.7916297 L49.011208,64.7317852 L36.0422113,64.7317852 L36.0526617,23.2319219" id="path3361" sketch:type="MSShapeGroup"></path>
                <path d="M150.495449,27.497871 L163.098683,27.497871 L163.098683,33.0788168 L169.912371,33.0788168 L169.912371,37.18946 L163.098683,37.18946 L163.109133,64.7317852 L150.484999,64.7317852 L150.495449,37.18946 L143.650409,37.18946 L143.650409,33.089171 L150.5059,33.089171 L150.495449,27.497871" id="path3363" sketch:type="MSShapeGroup"></path>
                <path d="M87.3016256,37.137689 L99.8944087,37.137689 L99.8944087,64.7317852 L87.3016256,64.7317852 L87.3016256,37.137689" id="path3365" sketch:type="MSShapeGroup"></path>
                <path d="M87.2702745,23.2215677 L99.8944087,23.2215677 L99.8944087,31.7017019 L87.2702745,31.7017019 L87.2702745,23.2215677 L87.2702745,23.2215677 Z" id="path3367" sketch:type="MSShapeGroup"></path>
                <path d="M313.093867,50.7121148 C313.093867,50.7121148 313.083417,54.8848832 313.083417,56.5519155 C313.083417,60.9524761 310.460358,62.7644742 307.931345,62.7644742 C305.41279,62.7644742 302.779281,60.9524761 302.779281,56.5519155 L302.779281,50.6085729 C302.779281,50.6085729 302.789731,46.5186452 302.789731,44.8516058 C302.789731,40.4717606 305.423241,38.6701168 307.931345,38.6701168 C310.449908,38.6701168 313.083417,40.4717606 313.083417,44.8516058 C313.083417,46.5186452 313.083417,49.6145632 313.093867,50.722469 L313.093867,50.7121148 L313.093867,50.7121148 Z M308.035856,35.2532116 C297.867575,35.2532116 289.622177,42.1905639 289.622177,50.7431774 C289.622177,59.3061523 297.867575,66.2435045 308.035856,66.2435045 C318.20413,66.2435045 326.439078,59.3061523 326.439078,50.7431774 C326.439078,42.1905639 318.20413,35.2532116 308.035856,35.2532116 L308.035856,35.2532116 Z" id="path3369" sketch:type="MSShapeGroup"></path>
                <path d="M273.089574,23.2319219 L285.525601,23.2319219 L285.525601,64.7317852 L273.068673,64.7317852 C273.068673,64.7317852 273.058223,63.3857258 273.058223,63.1372252 C268.24057,66.1296084 262.806345,66.1192542 258.563464,64.1726516 C257.434816,63.6445877 249.952303,60.0930781 249.952303,50.4843226 C249.952303,43.2052819 256.891396,35.2428574 265.962374,36.0401374 C268.951203,36.2989923 271.083094,37.3758355 273.089574,38.5044497 L273.089574,23.2319219 L273.089574,23.2319219 Z M273.183634,50.7949484 L273.183634,45.8663239 C273.183634,41.5900135 270.205255,40.5028232 268.25102,40.5028232 C266.244541,40.5028232 263.307964,41.5900135 263.307964,45.8663239 C263.307964,47.2745013 263.318414,50.77424 263.318414,50.77424 C263.318414,50.77424 263.307964,54.2222077 263.307964,55.6925174 C263.307964,59.9481123 266.244541,61.0663723 268.24057,61.0663723 C270.205255,61.0663723 273.183634,59.9481123 273.183634,55.6925174 L273.183634,50.7949484 L273.183634,50.7949484 Z" id="path3371" sketch:type="MSShapeGroup"></path>
                <path d="M129.385559,35.8537548 C134.088257,35.7295045 143.650409,38.7840129 143.587707,49.7077581 C143.566806,51.6543535 143.577257,64.721431 143.577257,64.721431 L131.057626,64.721431 L131.057626,46.6014787 C131.057626,44.1992916 128.737628,41.5175342 125.309883,41.5175342 C121.871688,41.5175342 119.332232,44.1992916 119.332232,46.6014787 C119.332232,47.7715097 119.342682,64.721431 119.342682,64.721431 L106.833502,64.721431 L106.823052,37.1273348 L119.342682,37.1169806 C119.342682,37.1169806 119.321781,39.3431465 119.342682,40.0265232 C121.746283,37.7485865 125.22628,35.9780123 129.385559,35.8537548" id="path3373" sketch:type="MSShapeGroup"></path>
                <path d="M231.747632,35.8537548 C236.46078,35.7295045 246.012482,38.7840129 245.93933,49.7077581 C245.928879,51.6543535 245.93933,64.721431 245.93933,64.721431 L233.430149,64.721431 L233.430149,46.6014787 C233.430149,44.1992916 231.099701,41.5175342 227.671956,41.5175342 C224.244211,41.5175342 221.694305,44.1992916 221.694305,46.6014787 C221.694305,47.7715097 221.704755,64.721431 221.704755,64.721431 L209.195575,64.721431 L209.206025,37.1273348 L221.704755,37.1169806 C221.704755,37.1169806 221.694305,39.3431465 221.704755,40.0265232 C224.118806,37.7485865 227.588353,35.9780123 231.747632,35.8537548" id="path3375" sketch:type="MSShapeGroup"></path>
                <path d="M181.648216,46.7567916 C181.627316,44.3338961 181.679568,42.7186277 182.484247,41.3415129 C183.466589,39.6434181 185.274519,38.8254297 186.915235,38.8254297 L186.904785,38.8254297 C188.555959,38.8254297 190.363881,39.6434181 191.346224,41.3415129 C192.140459,42.7186277 192.182261,44.3338961 192.16136,46.7567916 L181.648216,46.7567916 L181.648216,46.7567916 Z M192.119559,55.0816129 C192.119559,55.0816129 192.130009,55.195509 192.130009,56.7486523 C192.130009,61.8015271 188.775416,62.9197871 186.915235,62.9197871 C185.055061,62.9197871 181.648216,61.8015271 181.648216,56.7486523 C181.648216,55.2369258 181.658667,51.0538103 181.658667,51.0538103 C181.658667,51.0538103 205.381166,51.0641645 205.381166,51.0538103 C205.381166,42.4908355 197.041715,35.3981703 186.800281,35.3981703 C176.558847,35.3981703 168.250747,42.3355226 168.250747,50.8984974 C168.250747,59.451111 176.558847,66.3884632 186.800281,66.3884632 C195.296488,66.3884632 202.475947,61.584089 204.67054,55.0712587 L192.119559,55.0816129 L192.119559,55.0816129 Z" id="path3377" sketch:type="MSShapeGroup"></path>
                <path d="M328.403763,26.3174858 C330.441601,26.3174858 331.455294,27.0008697 331.455294,28.3572761 C331.455294,29.2891606 330.870066,29.9932458 329.887724,30.2313994 L331.486646,33.3997968 L329.553311,33.3997968 L328.194755,30.5006084 L327.337817,30.5006084 L327.337817,33.3997968 L325.603048,33.3997968 L325.603048,26.3174858 L328.403763,26.3174858 L328.403763,26.3174858 Z M328.247007,23.5529019 C324.683407,23.5529019 321.799082,26.4210277 321.799082,29.9414748 C321.799082,33.4722761 324.683407,36.3300548 328.247007,36.3300548 C331.810607,36.3300548 334.694933,33.4722761 334.694933,29.9414748 C334.694933,26.4210277 331.810607,23.5529019 328.247007,23.5529019 L328.247007,23.5529019 Z M333.461774,29.9414748 C333.461774,32.7992535 331.120875,35.1082529 328.247007,35.1082529 C325.362682,35.1082529 323.032233,32.7992535 323.032233,29.9414748 C323.032233,27.0940574 325.362682,24.7747039 328.247007,24.7747039 C331.120875,24.7747039 333.461774,27.0940574 333.461774,29.9414748 L333.461774,29.9414748 Z M327.337817,29.4651819 L328.194755,29.4651819 C329.187548,29.4651819 329.657815,29.1649103 329.657815,28.4608181 C329.657815,27.7256632 329.145747,27.4046832 328.100702,27.4046832 L327.337817,27.4046832 L327.337817,29.4651819 L327.337817,29.4651819 Z" id="path3379" sketch:type="MSShapeGroup"></path>
                <path d="M47.4540946,88.1324045 C19.1438515,88.1220503 0.218097004,68.2418781 0.218097004,44.1371665 C0.218097004,20.0221006 19.185653,-0.0858709677 47.4122931,-0.0237458065 L314.191164,-0.0237458065 C342.428255,-0.0858709677 361.395811,20.0221006 361.395811,44.1371665 C361.395811,68.2418781 342.470056,88.1220503 314.159813,88.1324045 L47.4540946,88.1324045 L47.4540946,88.1324045 Z M47.548148,10.8171658 C25.1215029,10.8585826 11.3624535,25.7065884 11.3624535,44.0750413 C11.3624535,62.43314 25.0378999,77.4053961 47.548148,77.3225626 L314.06576,77.3225626 C336.576008,77.4053961 350.245187,62.43314 350.245187,44.0750413 C350.245187,25.7065884 336.492405,10.8585826 314.06576,10.8171658 L47.548148,10.8171658 L47.548148,10.8171658 Z" id="path3381" sketch:type="MSShapeGroup"></path>
            </g>
        </g>
    </g>
</svg>