<?xml version="1.0" encoding="UTF-8" standalone="no"?>
<svg width="512px" height="512px" viewBox="0 0 512 512" version="1.1" xmlns="http://www.w3.org/2000/svg" xmlns:xlink="http://www.w3.org/1999/xlink" xmlns:sketch="http://www.bohemiancoding.com/sketch/ns">
    <!-- Generator: Sketch 3.0.3 (7892) - http://www.bohemiancoding.com/sketch -->
    <title>icon_512x512</title>
    <desc>Created with Sketch.</desc>
    <defs></defs>
    <g id="Page-1" stroke="none" stroke-width="1" fill="none" fill-rule="evenodd" sketch:type="MSPage">
        <g id="icon_512x512" sketch:type="MSArtboardGroup" fill="#FFFFFF">
            <g id="SoundCloud_logo" sketch:type="MSLayerGroup" transform="translate(98.000000, 166.000000)">
                <path d="M3.58925806,82.4813585 C2.92798925,82.4813585 2.40306452,82.9936226 2.31784946,83.7244528 L0,101.363415 L2.31784946,118.698434 C2.40306452,119.429264 2.92798925,119.938113 3.58925806,119.938113 C4.23007527,119.938113 4.7515914,119.432679 4.85384946,118.705264 L4.85384946,118.705264 L4.85384946,118.701849 C4.85384946,118.701849 4.85384946,118.701849 4.85384946,118.705264 L7.6011828,101.363415 L4.85384946,83.7210377 C4.755,82.9936226 4.22666667,82.4813585 3.58925806,82.4813585 L3.58925806,82.4813585 Z M16.6237527,72.8439623 C16.5146774,72.0858113 15.9727097,71.5633019 15.3046237,71.5633019 C14.633129,71.5633019 14.0775269,72.1028868 13.9854946,72.8439623 C13.9854946,72.8507925 10.8700323,101.363415 10.8700323,101.363415 L13.9854946,129.251075 C14.0741183,129.998981 14.6297204,130.538566 15.3046237,130.538566 C15.9693011,130.538566 16.5112688,130.012642 16.6203441,129.257906 L20.1652903,101.363415 L16.6237527,72.8439623 L16.6237527,72.8439623 Z M65.7212581,46.5374906 C64.4430323,46.5374906 63.3863656,47.5859245 63.3250108,48.9178113 L60.8435484,101.387321 L63.3250108,135.295792 C63.3897742,136.620849 64.4430323,137.665868 65.7212581,137.665868 C66.9926667,137.665868 68.0459247,136.617434 68.120914,135.288962 L68.120914,135.299208 L70.9261935,101.387321 L68.120914,48.9178113 C68.0459247,47.5859245 66.9926667,46.5374906 65.7212581,46.5374906 L65.7212581,46.5374906 Z M40.310129,64.7740943 C39.3284516,64.7740943 38.5274301,65.559566 38.4490323,66.608 L35.6539785,101.37366 L38.4490323,135.008925 C38.5240215,136.050528 39.3284516,136.836 40.310129,136.836 C41.2815806,136.836 42.0826022,136.050528 42.1678172,135.008925 L45.3446344,101.37366 L42.1678172,66.6011698 C42.0826022,65.559566 41.2815806,64.7740943 40.310129,64.7740943 L40.310129,64.7740943 Z M91.544828,137.662453 C93.129828,137.662453 94.4182796,136.381792 94.483043,134.742547 L96.9167849,101.404396 L94.4864516,31.5486415 C94.4216882,29.9093962 93.1332366,28.6287358 91.5482366,28.6287358 C89.9496022,28.6287358 88.6577419,29.9128113 88.6066129,31.5520566 C88.6066129,31.5554717 86.4489677,101.400981 86.4489677,101.400981 L88.6066129,134.752792 C88.6577419,136.378377 89.9496022,137.662453 91.544828,137.662453 L91.544828,137.662453 Z M144.412247,137.819547 C146.593753,137.819547 148.393495,136.019792 148.434398,133.806811 L148.434398,133.830717 L148.434398,133.806811 L150.131882,101.424887 L148.434398,20.7466981 C148.396903,18.5371321 146.593753,16.7339623 144.412247,16.7339623 C142.227333,16.7339623 140.424183,18.533717 140.390097,20.7501132 L138.873269,101.397566 C138.873269,101.448792 140.390097,133.827302 140.390097,133.827302 C140.424183,136.019792 142.230742,137.819547 144.412247,137.819547 L144.412247,137.819547 Z M117.77743,137.693189 C119.676022,137.693189 121.206484,136.166642 121.257613,134.220038 L121.257613,134.243943 L123.323226,101.411226 L121.254204,31.0500377 C121.203075,29.103434 119.672613,27.5803019 117.774022,27.5803019 C115.861796,27.5803019 114.331333,29.103434 114.29043,31.0500377 L112.453194,101.414642 L114.293839,134.240528 C114.334742,136.166642 115.865204,137.693189 117.77743,137.693189 L117.77743,137.693189 Z M52.9662688,137.38583 C54.0945161,137.38583 55.0080215,136.48083 55.0932366,135.288962 L58.0859892,101.37366 L55.0932366,69.1112642 C55.0114301,67.9193962 54.0979247,67.0212264 52.9662688,67.0212264 C51.8209785,67.0212264 50.9074731,67.9262264 50.8358925,69.1249245 L48.201043,101.37366 L50.8358925,135.285547 C50.9108817,136.48083 51.8209785,137.38583 52.9662688,137.38583 L52.9662688,137.38583 Z M27.7562473,135.528019 C28.581129,135.528019 29.2492151,134.875736 29.3446559,133.974151 L32.7055376,101.36683 L29.3480645,67.5300755 C29.2492151,66.6250755 28.581129,65.9727925 27.7562473,65.9727925 C26.9211398,65.9727925 26.2530538,66.6284906 26.1678387,67.5300755 C26.1678387,67.5334906 23.209172,101.36683 23.209172,101.36683 L26.1678387,133.967321 C26.2496452,134.872321 26.9177312,135.528019 27.7562473,135.528019 L27.7562473,135.528019 Z M131.04371,29.8786604 C128.981505,29.8786604 127.328333,31.5213208 127.28743,33.6250189 L125.610398,101.418057 L127.28743,134.039038 C127.328333,136.115415 128.978097,137.758075 131.04371,137.758075 C133.102505,137.758075 134.745452,136.11883 134.793172,134.015132 L134.793172,134.042453 L136.67472,101.421472 L134.793172,33.6181887 C134.745452,31.5213208 133.102505,29.8786604 131.04371,29.8786604 L131.04371,29.8786604 Z M78.5853226,137.730755 C80.0101183,137.730755 81.186086,136.566208 81.2542581,135.080642 L83.8720645,101.397566 L81.2542581,36.9274151 C81.1826774,35.438434 80.0101183,34.2773019 78.5853226,34.2773019 C77.1468925,34.2773019 75.9743333,35.4418491 75.9129785,36.9274151 C75.9129785,36.9308302 73.595129,101.397566 73.595129,101.397566 L75.9163871,135.094302 C75.9743333,136.566208 77.1468925,137.730755 78.5853226,137.730755 L78.5853226,137.730755 Z M107.817495,134.551302 L107.817495,134.534226 L110.067172,101.407811 L107.817495,29.1990566 C107.762957,27.4061321 106.351796,25.9991132 104.61,25.9991132 C102.857978,25.9991132 101.446817,27.402717 101.399097,29.1990566 L99.4016559,101.404396 L101.402505,134.547887 C101.450226,136.323736 102.861387,137.72734 104.61,137.72734 C106.355204,137.72734 107.759548,136.323736 107.817495,134.537642 L107.817495,134.551302 L107.817495,134.551302 Z M277.968097,59.7846415 C272.626817,59.7846415 267.530957,60.8672264 262.888441,62.8172453 C259.786613,27.6144528 230.322656,0 194.382355,0 C185.588161,0 177.015527,1.73486792 169.445022,4.66843396 C166.503398,5.80907547 165.719419,6.98386792 165.692151,9.26173585 L165.692151,133.22966 C165.722828,135.620226 167.573699,137.611226 169.901774,137.846868 C170.000624,137.857113 277.269333,137.911755 277.964688,137.911755 C299.493419,137.911755 316.948871,120.423057 316.948871,98.8499057 C316.948871,77.2767547 299.496828,59.7846415 277.968097,59.7846415 L277.968097,59.7846415 Z M157.722839,9.15245283 C155.381129,9.15245283 153.458677,11.078566 153.424591,13.4452264 L151.665753,101.435132 L153.428,133.369679 C153.458677,135.702189 155.381129,137.624887 157.722839,137.624887 C160.057731,137.624887 161.980183,135.702189 162.014269,133.335528 L162.014269,133.373094 L163.926495,101.435132 L162.014269,13.4383962 C161.980183,11.078566 160.057731,9.15245283 157.722839,9.15245283 L157.722839,9.15245283 Z M31.4818495,162.742906 C26.8700108,161.656906 25.6224624,161.07634 25.6224624,159.245849 C25.6224624,157.954943 26.662086,156.619642 29.7775484,156.619642 C32.4396667,156.619642 34.518914,157.702226 36.386828,159.618094 L40.5828172,155.540472 C37.8388925,152.668377 34.5155054,150.96083 29.9888817,150.96083 C24.2487957,150.96083 19.5960538,154.208585 19.5960538,159.498566 C19.5960538,165.242755 23.3386989,166.950302 28.6970215,168.196811 C34.1814624,169.443321 35.1801828,170.280019 35.1801828,172.154906 C35.1801828,174.361057 33.5542796,175.320698 30.1115914,175.320698 C27.3267634,175.320698 24.708957,174.364472 22.6706129,171.984151 L18.4746237,175.733925 C20.6765806,178.981679 24.9202903,181.020491 29.7775484,181.020491 C37.7195914,181.020491 41.21,177.274132 41.21,171.738264 C41.21,165.406679 36.0970968,163.825491 31.4818495,162.742906 L31.4818495,162.742906 Z M58.2530108,150.96083 C50.3177849,150.96083 45.6241398,157.12166 45.6241398,165.99066 C45.6241398,174.85966 50.3177849,181.017075 58.2530108,181.017075 C66.1882366,181.017075 70.8886989,174.85966 70.8886989,165.99066 C70.8886989,157.12166 66.1882366,150.96083 58.2530108,150.96083 L58.2530108,150.96083 Z M58.2530108,175.235321 C53.5593656,175.235321 51.602828,171.195264 51.602828,165.994075 C51.602828,160.789472 53.5593656,156.749415 58.2530108,156.749415 C62.9534731,156.749415 64.9031935,160.789472 64.9031935,165.994075 C64.9031935,171.195264 62.9534731,175.235321 58.2530108,175.235321 L58.2530108,175.235321 Z M94.3705591,167.783585 C94.3705591,172.445189 92.0799785,175.320698 88.3850538,175.320698 C84.6867204,175.320698 82.4438602,172.363226 82.4438602,167.701623 L82.4438602,151.415038 L76.6219677,151.415038 L76.6219677,167.783585 C76.6219677,176.273509 81.3633333,181.020491 88.3850538,181.020491 C95.7817204,181.020491 100.189043,176.147151 100.189043,167.701623 L100.189043,151.415038 L94.3705591,151.415038 L94.3705591,167.783585 L94.3705591,167.783585 Z M125.286581,163.743528 C125.286581,165.369113 125.368387,169.030094 125.368387,170.112679 C124.993441,169.361358 124.039032,167.906528 123.333452,166.820528 L113.02243,151.411623 L107.456183,151.411623 L107.456183,180.562868 L113.19286,180.562868 L113.19286,167.735774 C113.19286,166.110189 113.111054,162.449208 113.111054,161.366623 C113.482591,162.114528 114.443817,163.572774 115.145989,164.658774 L125.828548,180.562868 L131.023258,180.562868 L131.023258,151.411623 L125.286581,151.411623 L125.286581,163.743528 L125.286581,163.743528 Z M147.602699,151.415038 L138.501731,151.415038 L138.501731,180.566283 L147.183441,180.566283 C154.665323,180.566283 162.065398,176.232528 162.065398,165.99066 C162.065398,155.328736 155.912871,151.415038 147.602699,151.415038 L147.602699,151.415038 Z M147.183441,174.904057 L144.320215,174.904057 L144.320215,157.080679 L147.394774,157.080679 C153.547301,157.080679 156.083301,160.034736 156.083301,165.99066 C156.083301,171.321623 153.295065,174.904057 147.183441,174.904057 L147.183441,174.904057 Z M180.059409,156.746 C182.677215,156.746 184.340613,157.913962 185.380237,159.911792 L190.782871,157.415358 C188.952452,153.628019 185.625656,150.96083 180.141215,150.96083 C172.543441,150.96083 167.219204,157.12166 167.219204,165.99066 C167.219204,175.190925 172.328699,181.017075 179.93329,181.017075 C185.213215,181.017075 188.703624,178.561623 190.697656,174.439604 L185.796086,171.523113 C184.258806,174.10834 182.718118,175.231906 180.100312,175.231906 C175.737301,175.231906 173.201301,171.23283 173.201301,165.99066 C173.197892,160.581151 175.699806,156.746 180.059409,156.746 L180.059409,156.746 Z M201.639269,151.415038 L195.820785,151.415038 L195.820785,180.566283 L213.306914,180.566283 L213.306914,174.815264 L201.639269,174.815264 L201.639269,151.415038 L201.639269,151.415038 Z M228.635398,150.96083 C220.693355,150.96083 215.99971,157.12166 215.99971,165.99066 C215.99971,174.85966 220.693355,181.017075 228.635398,181.017075 C236.570624,181.017075 241.267677,174.85966 241.267677,165.99066 C241.267677,157.12166 236.570624,150.96083 228.635398,150.96083 L228.635398,150.96083 Z M228.635398,175.235321 C223.934935,175.235321 221.985215,171.195264 221.985215,165.994075 C221.985215,160.789472 223.934935,156.749415 228.635398,156.749415 C233.325634,156.749415 235.278763,160.789472 235.278763,165.994075 C235.278763,171.195264 233.325634,175.235321 228.635398,175.235321 L228.635398,175.235321 Z M264.746129,167.783585 C264.746129,172.445189 262.465774,175.320698 258.767441,175.320698 C255.06229,175.320698 252.822839,172.363226 252.822839,167.701623 L252.822839,151.415038 L247.004355,151.415038 L247.004355,167.783585 C247.004355,176.273509 251.742312,181.020491 258.767441,181.020491 C266.164108,181.020491 270.568022,176.147151 270.568022,167.701623 L270.568022,151.415038 L264.746129,151.415038 L264.746129,167.783585 L264.746129,167.783585 Z M286.939538,151.415038 L277.841978,151.415038 L277.841978,180.566283 L286.523688,180.566283 C294.008978,180.566283 301.402237,176.232528 301.402237,165.99066 C301.402237,155.328736 295.253118,151.415038 286.939538,151.415038 L286.939538,151.415038 Z M286.523688,174.904057 L283.657054,174.904057 L283.657054,157.080679 L286.735022,157.080679 C292.880731,157.080679 295.416731,160.034736 295.416731,165.99066 C295.416731,171.321623 292.631903,174.904057 286.523688,174.904057 L286.523688,174.904057 Z" id="Shape" sketch:type="MSShapeGroup"></path>
            </g>
        </g>
    </g>
</svg>