<?xml version="1.0" encoding="UTF-8" standalone="no"?>
<svg width="512px" height="512px" viewBox="0 0 512 512" version="1.1" xmlns="http://www.w3.org/2000/svg" xmlns:xlink="http://www.w3.org/1999/xlink" xmlns:sketch="http://www.bohemiancoding.com/sketch/ns">
    <!-- Generator: Sketch 3.0.3 (7892) - http://www.bohemiancoding.com/sketch -->
    <title>icon_512x512</title>
    <desc>Created with Sketch.</desc>
    <defs></defs>
    <g id="Page-1" stroke="none" stroke-width="1" fill="none" fill-rule="evenodd" sketch:type="MSPage">
        <g id="icon_512x512" sketch:type="MSArtboardGroup" fill="#FFFFFF">
            <g id="2K_Games_(logo)" sketch:type="MSLayerGroup" transform="translate(45.000000, 120.000000)">
                <g id="layer1" transform="translate(-0.275523, 0.074581)" sketch:type="MSShapeGroup">
                    <path d="M96.4758432,0.0199978947 C90.1806089,0.0199978947 83.5585718,4.84659632 81.6393329,10.8390768 L0.227767683,265.011774 C-1.69147117,271.004231 1.80495534,275.830805 8.1002017,275.830853 L315.844245,275.830853 C322.139479,275.830853 328.723692,271.004243 330.642907,265.011774 L412.054472,10.8390768 C413.973711,4.84659632 410.477272,0.0200342105 404.182038,0.0199978947 L96.4758432,0.0199978947 Z M200.066477,19.9558532 C209.038448,19.9639274 217.235529,20.3936158 223.002511,21.5446689 C243.355454,24.1818247 257.84743,34.5662037 260.66151,45.3390768 C262.177923,53.0856221 260.66151,60.8867742 260.66151,60.8867742 C246.211234,118.153409 129.589662,105.269729 126.111015,122.699274 C126.111015,122.699238 235.984458,122.699323 235.984458,122.699323 L223.002511,168.964077 L285.717046,122.699323 L355.357808,122.699323 L280.531837,174.146643 L318.607167,255.857217 L248.550073,255.857217 L228.18772,206.149932 L206.576375,221.281511 L195.335447,255.857217 L140.8334,255.857217 L173.269923,156.858814 L56.9244319,156.858814 C56.9244198,156.858838 73.6694503,102.818207 123.537335,88.35059 C167.304205,75.6830253 195.747127,79.2565232 203.132185,64.7831558 C203.132173,64.7831679 203.132185,59.1466426 203.132185,59.1466426 C203.132173,57.45538 198.894211,53.0940111 181.482991,53.0940111 C150.92609,53.0939868 147.30603,71.7058532 147.30603,71.7058532 L88.4898645,71.7058532 C102.915809,40.36569 127.85631,26.6550995 156.389608,21.9986163 C168.004997,21.1148474 185.113189,19.9423921 200.066477,19.9558532 Z" id="rect2396"></path>
                </g>
            </g>
        </g>
    </g>
</svg>