<?xml version="1.0" encoding="UTF-8" standalone="no"?>
<svg width="512px" height="512px" viewBox="0 0 512 512" version="1.1" xmlns="http://www.w3.org/2000/svg" xmlns:xlink="http://www.w3.org/1999/xlink" xmlns:sketch="http://www.bohemiancoding.com/sketch/ns">
    <!-- Generator: Sketch 3.0.3 (7892) - http://www.bohemiancoding.com/sketch -->
    <title>icon_512x512</title>
    <desc>Created with Sketch.</desc>
    <defs></defs>
    <g id="Page-1" stroke="none" stroke-width="1" fill="none" fill-rule="evenodd" sketch:type="MSPage">
        <g id="icon_512x512" sketch:type="MSArtboardGroup" fill="#FFFFFF">
            <g id="Group" sketch:type="MSLayerGroup" transform="translate(52.000000, 175.000000)">
                <g transform="translate(0.403750, -0.010410)" id="Shape" sketch:type="MSShapeGroup">
                    <path d="M224.712772,35.1473672 C187.970637,35.1473672 160.174412,63.6050542 160.174412,98.8586068 C160.174412,136.023497 189.142125,162.569846 224.712772,162.569846 C260.28342,162.569846 289.144634,136.023497 289.144634,98.8586068 C289.144634,63.6050542 261.454908,35.1473672 224.712772,35.1473672 L224.712772,35.1473672 Z M224.712772,68.8081388 C240.581115,68.7019534 253.573986,82.1874991 253.573986,98.8586068 C253.573986,115.423529 240.581115,128.909075 224.712772,128.909075 C208.84443,128.909075 195.851558,115.423529 195.851558,98.8586068 C195.851558,82.1874991 208.84443,68.8081388 224.712772,68.8081388 L224.712772,68.8081388 Z"></path>
                    <path d="M408.561978,140.266665 C408.561978,152.584171 398.551077,162.565599 386.197199,162.565599 C373.843322,162.565599 363.832421,152.584171 363.832421,140.266665 C363.832421,127.949159 373.843322,117.967731 386.197199,117.967731 C398.551077,117.967731 408.561978,127.949159 408.561978,140.266665 L408.561978,140.266665 Z"></path>
                    <path d="M343.459095,158.32243 L308.314444,158.32243 L308.314444,0.106185399 L343.459095,0.106185399 L343.459095,158.32243 L343.459095,158.32243 Z"></path>
                    <path d="M-0.532494721,158.32243 L63.3668718,0.106185399 L96.3815445,0.106185399 L159.215922,158.32243 L114.486365,158.32243 L107.031439,136.023497 L51.651988,136.023497 L44.1970619,158.32243 L-0.532494721,158.32243 L-0.532494721,158.32243 Z M96.3815445,103.106023 L63.3668718,103.106023 L79.8742082,50.0133231 L96.3815445,103.106023 L96.3815445,103.106023 Z"></path>
                </g>
            </g>
        </g>
    </g>
</svg>