<?xml version="1.0" encoding="UTF-8" standalone="no"?>
<svg width="512px" height="512px" viewBox="0 0 512 512" version="1.1" xmlns="http://www.w3.org/2000/svg" xmlns:xlink="http://www.w3.org/1999/xlink" xmlns:sketch="http://www.bohemiancoding.com/sketch/ns">
    <!-- Generator: Sketch 3.0.3 (7892) - http://www.bohemiancoding.com/sketch -->
    <title>icon_512x512</title>
    <desc>Created with Sketch.</desc>
    <defs></defs>
    <g id="Page-1" stroke="none" stroke-width="1" fill="none" fill-rule="evenodd" sketch:type="MSPage">
        <g id="icon_512x512" sketch:type="MSArtboardGroup" fill="#FFFFFF">
            <g id="Atlantic_Records_logo" sketch:type="MSLayerGroup" transform="translate(96.000000, 96.000000)">
                <path d="M160,0 C160,0 127.459459,0 97.8378378,12.6486486 C97.8378378,12.6486378 69.0810811,24.7567568 46.9189189,46.9189189 C46.9189189,46.9189081 24.7567568,69.0810811 12.6486486,97.8378378 C12.6486486,97.837827 0,127.459459 0,160 C0,159.999989 0,192.540541 12.6486486,222.27027 C12.6486486,222.270259 24.7567568,250.918919 46.9189189,273.081081 C46.9189189,273.08107 69.0810811,295.243243 97.8378378,307.459459 C97.8378378,307.459449 127.459459,320 160,320 C160,319.999989 192.540541,320 222.27027,307.459459 C222.27027,307.459449 250.918919,295.243243 273.081081,273.081081 C273.081081,273.08107 295.243243,250.918919 307.459459,222.27027 C307.459459,222.270259 320,192.540541 320,160 C320,159.999989 320,127.459459 307.459459,97.8378378 C307.459459,97.837827 295.243243,69.0810811 273.081081,46.9189189 C273.081081,46.9189081 250.918919,24.7567568 222.27027,12.6486486 C222.27027,12.6486378 192.540541,0 160,0 L160,0 Z M160,8.64864865 C160,8.64863784 222.594595,8.64864865 267.027027,53.0810811 C267.027027,53.0810703 287.891892,73.9459459 299.459459,101.189189 C299.459459,101.189178 311.351351,129.297297 311.351351,160 C311.351351,159.999989 311.351351,190.702703 299.459459,218.810811 C299.459459,218.8108 287.891892,245.945946 267.027027,266.918919 C267.027027,266.918908 222.594595,311.243243 160,311.243243 C160,311.243232 97.4054054,311.243243 53.0810811,266.918919 C53.0810811,266.918908 8.64864865,222.594595 8.64864865,160 C8.64864865,159.999989 8.64864865,129.297297 20.5405405,101.189189 C20.5405405,101.189178 32.1081081,73.9459459 53.0810811,53.0810811 C53.0810811,53.0810703 73.9459459,32.1081081 101.189189,20.5405405 C101.189189,20.5405297 129.297297,8.64864865 160,8.64864865 L160,8.64864865 Z" id="path3334" sketch:type="MSShapeGroup"></path>
                <path d="M275.136195,92.7580649 C275.136195,92.7580649 274.487546,94.7040108 272.974032,96.0013081 C272.974032,96.0013081 271.460519,97.1904973 269.730789,97.1904973 C269.730789,97.1904973 268.5416,97.1904973 268.109168,96.6499568 C268.109168,96.6499568 267.676735,96.2175243 267.460519,94.4877946 C267.460519,94.4877946 267.028086,91.6769838 264.433492,91.6769838 C264.433492,91.6769838 262.379438,91.6769838 260.325384,93.9472541 C260.325384,93.9472541 258.055114,96.4337405 256.649708,100.541849 C256.649708,100.541849 253.622681,109.406714 258.595654,109.406714 L260.757816,108.758065 L263.784843,105.947254 C263.784843,105.947254 265.622681,103.785092 267.568627,103.785092 C267.568627,103.785092 269.082141,103.785092 269.838897,105.082389 C269.838897,105.082389 270.487546,106.487795 269.838897,108.433741 C269.838897,108.433741 268.433492,112.433741 263.784843,115.136443 C263.784843,115.136443 259.676735,117.514822 255.784843,117.514822 C255.784843,117.514822 250.163222,117.514822 247.892951,113.406714 C247.892951,113.406714 245.406465,108.866173 248.325384,100.541849 C248.325384,100.541849 251.136195,92.4337405 256.865924,87.7850919 C256.865924,87.7850919 262.163222,83.5688757 267.676735,83.5688757 C267.676735,83.5688757 272.109168,83.5688757 274.379438,86.3796865 C274.379438,86.3796865 276.433492,89.0823892 275.136195,92.7580649" id="path3332" sketch:type="MSShapeGroup"></path>
                <path d="M196.974032,85.0823892 C196.974032,85.0823892 197.514573,86.4877946 196.757816,88.7580649 L188.325384,112.541849 C188.325384,112.541849 186.703762,117.514822 181.947005,117.514822 L179.568627,116.758065 C179.568627,116.758065 178.703762,115.785092 178.487546,113.406714 L176.433492,99.3526595 L171.892951,112.109416 C171.892951,112.109416 170.055114,117.514822 166.055114,117.514822 C166.055114,117.514822 162.055114,117.514822 163.892951,112.109416 L171.892951,89.0823892 C171.892951,89.0823892 173.947005,83.5688757 178.595654,83.5688757 C178.595654,83.5688757 181.622681,83.5688757 182.055114,86.7040108 L183.892951,102.271578 L188.649708,88.7580649 C188.649708,88.7580649 189.514573,86.4877946 191.028086,85.0823892 C191.028086,85.0823892 192.649708,83.5688757 194.487546,83.5688757 C194.487546,83.5688757 196.325384,83.5688757 196.974032,85.0823892" id="path3338" sketch:type="MSShapeGroup"></path>
                <path d="M203.784843,88.5418486 C203.784843,88.5418486 205.298357,84.3256324 208.865924,84.3256324 L226.595654,84.3256324 C226.595654,84.3256324 230.27133,84.3256324 228.757816,88.5418486 C228.757816,88.5418486 227.244303,92.7580649 224.001059,92.7580649 L218.919978,92.7580649 L212.325384,111.785092 C212.325384,111.785092 211.460519,114.379686 209.838897,115.8932 C209.838897,115.8932 208.109168,117.298605 206.27133,117.298605 C206.27133,117.298605 204.325384,117.298605 203.676735,115.8932 C203.676735,115.8932 203.136195,114.379686 204.001059,111.785092 L210.703762,92.7580649 L205.730789,92.7580649 C205.730789,92.7580649 202.27133,92.7580649 203.784843,88.5418486" id="path3340" sketch:type="MSShapeGroup"></path>
                <path d="M238.27133,85.2986054 C238.27133,85.2986054 239.892951,83.7850919 241.730789,83.7850919 C241.730789,83.7850919 243.676735,83.7850919 244.325384,85.2986054 C244.325384,85.2986054 244.865924,86.7040108 244.001059,89.2986054 L236.109168,111.785092 C236.109168,111.785092 235.244303,114.379686 233.622681,115.8932 C233.622681,115.8932 231.892951,117.298605 230.055114,117.298605 C230.055114,117.298605 226.055114,117.298605 227.892951,111.785092 L235.676735,89.2986054 C235.676735,89.2986054 236.5416,86.7040108 238.27133,85.2986054" id="path3342" sketch:type="MSShapeGroup"></path>
                <path d="M67.4594595,78.1621622 C67.4594595,78.1621514 65.6216216,78.1621622 64.3243243,79.5675676 L64.2162162,79.6756757 C64.2162162,79.6756649 47.3513514,96.2162162 39.027027,117.405405 L36.3243243,125.081081 L33.4054054,125.081081 C33.4054054,125.08107 31.3513514,125.081081 29.7297297,126.378378 C29.7297297,126.378368 28.2162162,127.567568 28.2162162,129.297297 C28.2162162,129.297286 28.2162162,131.135135 29.7297297,132.324324 C29.7297297,132.324314 31.2432432,133.621622 33.4054054,133.621622 L34.1621622,133.621622 C34.1621622,133.621611 31.4594595,145.189189 31.4594595,157.621622 C31.4594595,157.621611 31.4594595,183.675676 43.027027,206.594595 C43.027027,206.594584 43.7837838,208.108108 45.4054054,208.756757 L48.6486486,208.540541 C48.6486486,208.54053 51.027027,207.351351 51.027027,204.648649 L50.5945946,202.810811 C50.5945946,202.8108 39.8918919,181.72973 39.8918919,157.621622 C39.8918919,157.621611 39.8918919,145.297297 42.8108108,133.621622 L63.2432432,133.621622 L63.2432432,227.567568 C63.2432432,227.567557 63.2432432,229.297297 64.5405405,230.486486 C64.5405405,230.486476 65.7297297,231.783784 67.4594595,231.783784 C67.4594595,231.783773 69.1891892,231.783784 70.4864865,230.486486 C70.4864865,230.486476 71.6756757,229.297297 71.6756757,227.567568 L71.6756757,133.621622 L275.675676,133.621622 C275.675676,133.621611 277.837838,133.621622 279.351351,132.324324 C279.351351,132.324314 280.864865,131.135135 280.864865,129.297297 C280.864865,129.297286 280.864865,127.567568 279.351351,126.378378 C279.351351,126.378368 277.837838,125.081081 275.675676,125.081081 L71.6756757,125.081081 L71.6756757,82.8108108 C71.6756757,82.8108 71.8918919,80.7567568 70.5945946,79.4594595 L69.2972973,78.4864865 L67.4594595,78.1621622 L67.4594595,78.1621622 Z M63.2432432,93.2972973 L63.2432432,125.081081 L45.2972973,125.081081 L47.6756757,118.594595 C47.6756757,118.594584 53.5135135,105.081081 63.2432432,93.2972973 L63.2432432,93.2972973 Z" id="path3344" sketch:type="MSShapeGroup"></path>
                <path d="M105.514573,84.3256324 C105.514573,84.3256324 109.190249,84.3256324 107.676735,88.5418486 C107.676735,88.5418486 106.163222,92.7580649 102.81187,92.7580649 L97.8388973,92.7580649 L91.2443027,111.785092 C91.2443027,111.785092 89.1902486,117.298605 85.0821405,117.298605 C85.0821405,117.298605 83.2443027,117.298605 82.5956541,115.8932 C82.5956541,115.8932 82.0551135,114.379686 82.9199784,111.785092 L89.6226811,92.7580649 L84.5416,92.7580649 C84.5416,92.7580649 81.1902486,92.7580649 82.7037622,88.5418486 C82.7037622,88.5418486 84.2172757,84.3256324 87.7848432,84.3256324 L105.514573,84.3256324" id="path3346" sketch:type="MSShapeGroup"></path>
                <path d="M123.352411,85.2986054 C123.352411,85.2986054 123.892951,86.7040108 123.028086,89.2986054 L116.325384,108.433741 L124.974032,108.433741 C124.974032,108.433741 128.5416,108.433741 127.136195,112.541849 C127.136195,112.541849 125.622681,116.758065 122.055114,116.758065 L109.838897,116.758065 C109.838897,116.758065 105.082141,116.758065 107.244303,110.595903 L114.703762,89.2986054 C114.703762,89.2986054 115.568627,86.7040108 117.298357,85.2986054 C117.298357,85.2986054 118.919978,83.7850919 120.757816,83.7850919 C120.757816,83.7850919 122.703762,83.7850919 123.352411,85.2986054" id="path3348" sketch:type="MSShapeGroup"></path>
                <path d="M152.540541,83.7837838 C152.540541,83.783773 149.837838,83.7837838 147.135135,87.8918919 L134.918919,107.135135 C134.918919,107.135124 132,112 131.567568,113.189189 C131.567568,113.189178 130.918919,114.918919 131.675676,116.108108 C131.675676,116.108097 132.432432,117.297297 133.837838,117.297297 C133.837838,117.297286 136.540541,117.297297 138.162162,114.810811 L139.567568,112.432432 L148.216216,112.432432 L148,114.810811 C148,114.8108 147.675676,117.297297 150.378378,117.297297 C150.378378,117.297286 151.891892,117.297297 153.405405,116.108108 L155.675676,113.189189 L156.432432,107.135135 L157.621622,87.8918919 C157.621622,87.8918811 157.945946,83.7837838 155.135135,83.7837838 L152.540541,83.7837838 L152.540541,83.7837838 Z M150.27027,94.0540541 L148.972973,105.945946 L143.243243,105.945946 L150.27027,94.0540541 L150.27027,94.0540541 Z" id="path3350" sketch:type="MSShapeGroup"></path>
            </g>
        </g>
    </g>
</svg>