<?xml version="1.0" encoding="UTF-8" standalone="no"?>
<svg width="512px" height="512px" viewBox="0 0 512 512" version="1.1" xmlns="http://www.w3.org/2000/svg" xmlns:xlink="http://www.w3.org/1999/xlink" xmlns:sketch="http://www.bohemiancoding.com/sketch/ns">
    <!-- Generator: Sketch 3.0.3 (7892) - http://www.bohemiancoding.com/sketch -->
    <title>icon_512x512</title>
    <desc>Created with Sketch.</desc>
    <defs></defs>
    <g id="Page-1" stroke="none" stroke-width="1" fill="none" fill-rule="evenodd" sketch:type="MSPage">
        <g id="icon_512x512" sketch:type="MSArtboardGroup" fill="#FFFFFF">
            <g id="bank-of-america-logo-vector" sketch:type="MSLayerGroup" transform="translate(86.000000, 183.000000)">
                <path d="M131.197386,41.9706757 C141.338495,45.9452703 151.354291,50.2248919 161.244774,54.7818108 C129.735395,67.519 99.3259904,82.5854865 70.2857515,99.8657297 C60.4695288,94.7264865 50.5279927,89.8784054 40.4100894,85.339973 C69.3714272,68.5588649 99.725137,54.0146216 131.197386,41.9706757" id="Fill-74" sketch:type="MSShapeGroup"></path>
                <path d="M93.6822425,28.7851892 C61.0032714,39.1006486 29.5217403,52.5726757 -0.32143311,68.9563243 C9.20239143,72.3393514 18.6148262,76.0181622 27.9205125,79.9141892 C56.8168729,62.9898108 87.3747973,48.7182432 119.153368,37.4045135 C110.77593,34.3311351 102.259254,31.4472432 93.6822425,28.7851892" id="Fill-75" sketch:type="MSShapeGroup"></path>
                <path d="M199.474668,40.6951081 C173.776122,28.3137838 147.116839,17.892027 119.673187,9.58235135 C110.010125,12.3553243 100.463094,15.364 90.9624758,18.6407297 C119.227628,26.955027 146.666639,37.5154324 173.130989,50.1232162 C181.819391,46.8002703 190.609899,43.6483243 199.474668,40.6951081" id="Fill-78" sketch:type="MSShapeGroup"></path>
                <path d="M241.385065,28.2305946 C215.106364,16.8198108 187.922621,7.2622973 160.121594,-0.326405405 C151.280031,1.48989189 142.489523,3.51416216 133.773274,5.76951351 C161.34224,13.7787838 188.154683,23.9186216 214.038879,36.0457568 C223.075373,33.2589189 232.209334,30.6523243 241.385065,28.2305946" id="Fill-79" sketch:type="MSShapeGroup"></path>
                <path d="M308.696969,50.7656216 C242.717101,72.8708378 180.960761,104.455 125.07559,143.909784 C139.031799,152.450541 152.677045,161.527405 165.927785,171.084919 C218.633707,129.457973 277.122613,94.7911892 340.076393,68.4571892 C329.80997,62.2457297 319.316127,56.3624054 308.696969,50.7656216" id="Fill-80" sketch:type="MSShapeGroup"></path>
                <path d="M263.338131,29.2935676 C194.782374,47.3502432 130.296985,76.4941892 72.1793774,114.872135 C85.2676743,121.282324 98.1239092,128.150054 110.720235,135.410622 C167.682174,96.1684324 230.891222,65.6102703 298.309874,45.423027 C286.836729,39.682973 275.145445,34.308027 263.338131,29.2935676" id="Fill-81" sketch:type="MSShapeGroup"></path>
            </g>
        </g>
    </g>
</svg>