<?xml version="1.0" encoding="UTF-8" standalone="no"?>
<svg width="512px" height="512px" viewBox="0 0 512 512" version="1.1" xmlns="http://www.w3.org/2000/svg" xmlns:xlink="http://www.w3.org/1999/xlink" xmlns:sketch="http://www.bohemiancoding.com/sketch/ns">
    <!-- Generator: Sketch 3.0.3 (7892) - http://www.bohemiancoding.com/sketch -->
    <title>icon_512x512</title>
    <desc>Created with Sketch.</desc>
    <defs></defs>
    <g id="Page-1" stroke="none" stroke-width="1" fill="none" fill-rule="evenodd" sketch:type="MSPage">
        <g id="icon_512x512" sketch:type="MSArtboardGroup" fill="#FFFFFF">
            <path d="M71.4755251,285.624837 C70.6509019,285.624837 70.224379,285.370812 70.224379,284.374574 C70.224379,282.107412 73.0005302,278.277869 73.0005302,268.64791 L73.4217318,207.04347 C73.4217318,205.921877 73.3113992,205.561661 72.8656649,205.561661 C72.4167562,205.561661 70.9153663,207.102164 70.2512604,207.816453 C66.6477521,211.763609 62.3005399,220.390765 62.3005399,229.802879 C62.3005399,234.31745 63.0399502,237.663845 65.3357057,241.171024 C65.8901029,241.922264 66.4478212,242.654109 66.4478212,243.532634 C66.4478212,244.653533 65.7451273,245.083885 64.9186509,245.083885 C62.4115147,245.083885 52.5,240.686345 52.5,229.038843 C52.5,220.842149 58.1708002,210.629768 64.4321084,205.075457 C67.2799124,202.449191 72.1076303,198.5 75.8313246,198.5 C78.7225791,198.5 80.9509387,199.486528 82.8978978,200.722685 C84.2303666,201.587056 84.6240081,202.192336 84.6240081,203.593667 L84.6240081,255.363832 C84.6240081,268.642625 83.7891829,273.245236 80.3724676,279.141991 C79.2708294,280.875393 75.3781957,285.624837 71.4755251,285.624837 L71.4755251,285.624837 Z M275.05432,269.524687 C280.278004,269.524687 284.579162,261.29472 284.579162,246.836117 C284.579162,237.244975 282.454194,232.296024 277.651591,232.296024 C270.332472,232.296024 268.087051,246.408827 268.087051,253.290435 C267.885065,264.052325 271.719613,269.524687 275.05432,269.524687 L275.05432,269.524687 Z M257.857474,261.037506 C255.705889,245.572899 260.091858,223.798853 274.381484,223.798853 C279.624649,223.798853 283.026613,227.067585 284.579162,229.818648 C284.397174,228.00587 284.174823,225.581633 287.56798,225.581633 C289.909309,225.581633 291.766021,226.147362 292.9059,226.639433 C295.061529,227.47531 295.352808,228.16303 295.352808,229.262968 L294.866256,263.089541 C300.646696,254.734831 304.570978,247.260198 306.983712,237.204458 C305.125146,235.992642 303.716864,233.737401 303.716864,231.300438 C303.716864,225.871052 306.994123,222.68751 311.455354,222.68751 C315.105102,222.68751 316.575734,224.648867 316.575734,227.781178 C316.604298,229.095557 316.205027,230.767916 316.205027,230.767916 C319.716599,230.257875 326.568023,228.707287 328.415159,228.707287 C332.101273,228.707287 334.184273,230.717547 334.184273,233.893571 C334.184273,236.625241 330.778412,246.698617 330.778412,255.634266 C330.778412,264.543561 333.094147,269.688155 336.732878,269.688155 C339.617083,269.688155 341.706519,266.431296 342.594668,262.441257 C342.594668,262.441257 341.432227,257.663616 341.528887,252.855905 C341.528887,235.711637 348.92858,223.914628 358.743553,223.914628 C363.632722,223.914628 366.401348,225.983967 369.169662,229.726032 C368.659941,226.833523 369.524605,225.62795 372.042635,225.62795 C374.048689,225.62795 375.615075,225.937173 377.588892,226.720755 C378.969339,227.331132 379.92014,227.936632 379.92014,229.378743 L379.317741,252.207619 C379.317741,266.255207 380.864387,269.618696 384.18326,269.618696 C388.227244,269.618696 391.07958,260.726571 391.782735,257.000296 L391.979959,226.565887 C391.979959,225.667006 392.55012,224.839729 393.593441,224.839729 C395.027193,224.839729 396.715097,225.219107 400.351072,226.053737 C401.817468,226.347905 402.325221,227.438436 402.325221,228.273103 L402.287249,246.12286 C404.949785,238.323032 406.723217,232.142237 409.291658,227.400535 C410.103563,225.930865 410.592607,224.82077 412.860292,224.82077 C414.686843,224.82077 416.184906,225.277049 417.99333,226.026911 C421.715538,227.651375 422.142543,230.161921 422.142543,231.915125 C422.134543,237.715941 422.480323,246.309404 423.1486,253.444858 C423.17278,253.784163 423.501174,253.729915 423.547221,253.463829 C424.833484,243.373858 429.628999,230.962812 431.064142,227.798872 C431.828343,226.037142 432.854167,224.839729 434.974456,224.839729 C437.26085,224.839729 440.996747,226.437936 442.472391,227.286722 C444.670256,228.543049 445.262763,230.245003 445.262763,231.66852 L444.712289,248.873349 C444.712289,255.558871 444.896625,263.571965 447.184982,267.058312 C447.705257,267.929015 448.613238,269.338527 450.406357,269.338527 C451.931483,269.338527 453.221166,268.008555 454.084087,265.730411 C454.985991,263.343409 455.463456,261.277515 456.045109,258.864445 C456.284081,257.750154 456.88191,257.011927 457.882631,257.011927 C459.707659,257.011927 459.694649,258.82326 459.694649,259.935976 C459.694649,262.810421 458.403486,267.883113 457.023598,270.518878 C455.330061,273.910492 451.903462,276.018229 448.124556,276.018229 C446.090753,276.018229 444.503653,275.411348 443.373027,274.784233 C435.987003,270.296981 434.916927,260.963969 434.916927,246.187594 L435.135807,237.188498 C435.145293,236.871312 434.843962,236.890745 434.737182,237.131582 C430.834821,245.259158 426.93553,257.34792 426.93553,269.834018 C426.962169,270.536765 426.746147,270.916215 426.309126,271.256681 C425.877124,271.621791 424.191826,272.20513 422.816411,272.20513 C419.88448,272.20513 417.924035,270.718241 416.656716,268.676909 C414.089575,264.397245 413.435682,247.866655 413.021646,238.099013 C412.99475,237.527455 412.360426,237.399686 412.101013,237.871375 C409.217245,242.436426 407.124978,248.996697 405.739593,254.791238 C404.434752,260.612604 404.299358,267.863367 404.299358,272.451722 C404.299358,275.233356 403.376186,276.112727 399.11724,276.112727 C397.484304,276.112727 395.664524,275.719594 393.593441,274.936655 C392.963041,274.706952 392.256581,274.148024 392.198257,273.26739 C392.148682,271.564835 392.08309,269.748126 392.037595,268.045453 C389.815219,273.337864 386.99343,276.14785 382.121207,276.14785 C375.599722,276.14785 371.542315,270.833301 371.046363,266.006824 C367.774293,272.376297 362.414485,276.171003 356.148609,276.171003 C351.111432,276.171003 347.185317,273.752978 344.517705,268.553656 C343.386492,271.509326 339.819115,276.194156 334.137935,276.194156 C331.232862,276.194156 328.473265,275.226843 325.698461,272.356111 C322.506609,268.929707 320.282795,264.736229 320.282795,255.101748 C320.282795,249.270093 321.351957,243.416895 322.576537,238.246343 C322.764148,237.460194 322.831383,236.927589 321.481967,237.01807 L314.51368,237.204458 C311.315469,247.063954 304.136862,260.995612 294.958933,271.077336 L295.260132,283.834655 C295.260132,292.315897 293.963827,300.995437 290.895588,305.599219 C288.45756,309.157591 284.01102,313.401071 277.304054,313.401071 C270.851574,313.401071 263.518421,308.936285 263.518421,301.176272 C263.518421,295.075275 267.720083,289.568758 271.673955,285.733203 L285.297405,273.184263 L285.135221,268.136902 C283.676553,271.6051 277.570601,276.37938 272.415368,276.37938 C263.237655,276.37938 260.064984,267.850968 260.064984,267.850968 C257.61555,273.013721 253.885516,276.14785 249.791784,276.14785 C243.270305,276.14785 239.212898,270.833301 238.716942,266.006824 C235.444872,272.376297 230.085069,276.171003 223.819192,276.171003 C218.782002,276.171003 214.726152,273.785393 212.058535,268.586071 C210.120329,264.604263 209.87171,262.66262 209.87171,262.66262 C207.320032,270.148474 201.705475,276.275645 196.851124,276.275645 C189.450609,276.275645 184.705998,269.327101 183.892149,257.426766 C179.640935,267.453308 172.558564,276.502545 159.356039,276.502545 C150.412098,276.502545 145.431391,273.274943 145.431391,270.992124 C145.431391,268.574893 148.260833,264.314792 150.468361,264.314792 C153.127011,264.314792 155.64111,268.463814 159.578462,268.463814 C162.727952,268.463814 164.800785,265.261215 164.800785,261.985596 C164.800785,256.715171 160.218384,252.384921 153.656433,246.797211 L143.531523,263.722073 C140.374376,268.82607 134.591636,276.386781 128.703277,276.386781 C122.702982,276.386781 120.848942,270.098968 120.848942,258.049581 C120.848942,251.274758 121.891554,234.711329 121.891554,234.711329 C121.999872,233.695869 121.468251,233.439931 120.779434,234.155651 C114.176636,241.533521 110.345905,251.214343 107.114282,263.4535 C106.009146,267.599558 105.192787,271.729935 105.107835,273.437085 C105.046648,276.017967 104.052941,276.386781 100.946658,276.386781 C95.3358885,276.386781 94.1485237,274.806954 94.1485237,265.358032 L94.1812767,254.877617 L94.4245479,227.709849 C94.4245479,225.787439 94.6446811,224.998631 96.4750157,224.998631 C98.665134,224.998631 101.134557,225.815732 102.811773,226.526739 C104.104856,227.075892 104.517813,227.702258 104.445197,229.316674 L104.208871,251.964966 C106.339876,245.384255 107.846422,240.845643 110.638785,235.46426 C113.337418,230.271755 117.274912,224.963902 123.05001,224.963902 C125.647638,224.963902 128.171932,226.791258 130.213904,228.098817 C132.432867,229.643903 132.711537,231.21985 132.711537,232.928551 C132.456677,240.383821 131.946956,248.151118 131.946956,255.294371 C131.946956,263.891956 132.60868,266.129989 134.032178,266.129989 C135.961809,266.129989 139.220519,261.064349 141.149734,257.757855 C143.702851,253.440586 147.143569,247.37295 149.574032,242.763952 C147.813236,240.973451 146.659355,238.631963 146.659355,236.031053 C146.659355,228.895527 152.754962,224.084092 158.012229,224.084092 C161.736646,224.084092 163.735004,225.423794 163.735004,228.598938 C163.735004,232.694104 160.150965,237.544614 158.035398,239.99022 L168.127873,247.575153 C172.261939,250.663616 175.361275,255.025921 175.361275,259.841626 C175.387756,261.54322 174.907161,263.164086 174.907161,263.164086 C180.48537,257.793667 183.632656,251.335141 183.632656,246.357302 L183.665093,222.889393 L172.474402,222.565244 C171.739598,222.565244 170.917435,222.37319 170.917435,220.555572 C170.917435,218.324067 171.399038,216.983448 172.312217,215.272051 C172.597504,214.699061 172.892995,214.493365 173.544816,214.510308 L184.297609,214.883084 L184.703069,202.598081 C184.78951,199.631384 185.576092,198.675955 187.41154,198.675955 C189.479909,198.675955 192.741986,199.678527 195.407208,200.718046 C196.290594,201.112752 196.777818,201.643202 196.737116,202.452216 L196.153254,215.255842 L209.906451,216.082404 C211.687153,216.182116 211.966186,216.688142 211.966186,218.075885 C211.966186,219.613876 211.65947,220.46996 211.02552,221.754892 C210.781273,222.198024 210.403248,222.915687 209.744267,222.921811 L195.942416,223.148704 C195.942416,223.148704 194.980568,247.03792 194.969311,254.055685 C194.969311,264.351406 197.313783,268.382778 199.510461,268.382778 C203.464612,268.382778 209.102156,258.395755 209.102156,251.851063 C209.102156,234.706795 216.599148,223.914628 226.414128,223.914628 C231.303297,223.914628 234.071925,225.983967 236.840241,229.726032 C236.330524,226.833523 237.195185,225.62795 239.71322,225.62795 C241.719263,225.62795 243.285645,225.937173 245.259467,226.720755 C246.639919,227.331132 247.59071,227.936632 247.59071,229.378743 L246.988311,252.207619 C246.988311,266.255207 248.534968,269.618696 251.853828,269.618696 C256.015587,269.618696 257.857474,262.922964 257.857474,261.037506 L257.857474,261.037506 Z M352.497578,253.079898 C352.497578,241.817934 355.489218,231.892589 361.899813,231.892589 C365.670913,231.892589 369.497578,235.322886 369.497578,247.475668 C369.497578,262.7772 363.900549,269.892589 359.59674,269.892589 C355.561601,269.892589 352.497578,264.221368 352.497578,253.079898 L352.497578,253.079898 Z M276.649116,308.892589 C275.156083,308.892589 271.497578,307.732645 271.497578,303.026544 C271.497578,296.448759 278.151269,288.960503 280.219628,286.648409 L285.497578,280.892589 L285.497578,286.625107 C285.497578,305.645668 280.590959,308.892589 276.649116,308.892589 L276.649116,308.892589 Z M220.497578,253.079898 C220.497578,241.817934 223.313239,231.892589 229.34674,231.892589 C232.896011,231.892589 236.497578,235.322886 236.497578,247.475668 C236.497578,262.7772 231.229786,269.892589 227.179142,269.892589 C223.381364,269.892589 220.497578,264.221368 220.497578,253.079898 L220.497578,253.079898 Z" id="path4406" sketch:type="MSShapeGroup"></path>
        </g>
    </g>
</svg>