<?xml version="1.0" encoding="UTF-8" standalone="no"?>
<svg width="512px" height="512px" viewBox="0 0 512 512" version="1.1" xmlns="http://www.w3.org/2000/svg" xmlns:xlink="http://www.w3.org/1999/xlink" xmlns:sketch="http://www.bohemiancoding.com/sketch/ns">
    <!-- Generator: Sketch 3.0.3 (7892) - http://www.bohemiancoding.com/sketch -->
    <title>icon_512x512</title>
    <desc>Created with Sketch.</desc>
    <defs>
        <path d="M302.223073,57.0452143 C287.925175,-12.5530406 153.063481,-16.9606318 66.1307853,36.0640603 L66.1307853,41.9204015 C152.94932,-2.83024453 276.140517,-2.54486079 287.350709,61.566127 C291.12809,82.804593 279.230817,104.893487 257.898649,117.603204 L257.898649,134.236026 C283.577996,124.827196 309.82714,94.3748462 302.223073,57.0452143 L302.223073,57.0452143 Z M144.141828,178.90091 C84.1474241,184.445868 21.6361521,175.718013 12.884708,128.719644 C8.53856649,105.577063 19.1187623,81.0143192 33.0746781,65.7746256 L33.0746781,57.6149415 C7.90960833,79.7339906 -5.75985127,107.711455 2.1327425,140.745784 C12.1981473,183.137462 65.8448478,207.13308 147.745359,199.143382 C180.173029,196.017158 222.611097,185.554134 252.063146,169.322618 L252.063146,146.262157 C225.297658,162.268077 181.0298,175.491898 144.141828,178.90091 L144.141828,178.90091 Z" id="path-1"></path>
        <path id="path-2" d="M247.258265,46.9838039 L231.531193,46.9838039 L231.531193,117.243093 C231.531193,125.494868 235.478265,132.671842 247.258265,133.809627"></path>
        <path id="path-3" d="M59.8972497,72.6609125 L44.1691457,72.6609125 L44.1691457,118.550556 C44.1691457,126.80545 48.1162215,133.979824 59.8972497,135.11709"></path>
        <rect id="path-4" x="44.6143345" y="48.6958763" width="15.728104" height="14.9462605"></rect>
        <path id="path-5" d="M154.149114,134.378519 C141.396625,134.378519 136.02038,125.495396 136.02038,116.728336 L136.02038,55.7805285 L151.576714,55.7805285 L151.576714,72.6609125 L163.357222,72.6609125 L163.357222,85.3003821 L151.576714,85.3003821 L151.576714,115.788858 C151.576714,119.37448 153.292332,121.340882 157.008478,121.340882 L163.357222,121.340882 L163.357222,134.378519 L154.149114,134.378519"></path>
        <path d="M195.499474,84.5326657 C190.181871,84.5326657 186.065099,87.2933209 184.348443,91.0231194 C183.319377,93.2710961 182.975317,94.97985 182.805627,97.7425867 L206.883506,97.7425867 C206.539966,90.9944924 203.506751,84.5326657 195.499474,84.5326657 M182.805627,108.388597 C182.805627,116.388459 187.835728,122.278267 196.643738,122.278267 C203.565393,122.278267 206.99664,120.342585 211.000278,116.388977 L220.609013,125.640085 C214.432044,131.730292 207.969658,135.431976 196.531134,135.431976 C181.604796,135.431976 167.305331,127.261917 167.305331,103.462201 C167.305331,83.1091381 179.772921,71.6090122 196.187593,71.6090122 C212.830587,71.6090122 222.380161,85.07345 222.380161,102.752259 L222.380161,108.389115 L182.805627,108.389115" id="path-6"></path>
        <path id="path-7" d="M102.277194,85.3003821 C106.851673,85.3003821 108.739586,87.5499202 108.739586,91.2219446 L108.739586,134.463353 L124.353514,134.463353 L124.353514,91.1652119 C124.353514,82.3684873 119.663312,72.6603924 105.994891,72.6603924 L73.7955632,72.6603924 L73.7955632,134.462835 L89.3518968,134.462835 L89.3518968,85.2998609"></path>
    </defs>
    <g id="Page-1" stroke="none" stroke-width="1" fill="none" fill-rule="evenodd" sketch:type="MSPage">
        <g id="icon_512x512" sketch:type="MSArtboardGroup">
            <g id="Group" sketch:type="MSLayerGroup" transform="translate(104.000000, 155.000000)">
                <g id="path6">
                    <use fill="none" sketch:type="MSShapeGroup" xlink:href="#path-1"></use>
                    <use fill="#FFFFFF" fill-rule="evenodd" xlink:href="#path-1"></use>
                </g>
                <g id="path8">
                    <use fill="none" sketch:type="MSShapeGroup" xlink:href="#path-2"></use>
                    <use fill="#FFFFFF" fill-rule="evenodd" xlink:href="#path-2"></use>
                </g>
                <g id="path10">
                    <use fill="none" sketch:type="MSShapeGroup" xlink:href="#path-3"></use>
                    <use fill="#FFFFFF" fill-rule="evenodd" xlink:href="#path-3"></use>
                </g>
                <g id="rect12">
                    <use fill="none" sketch:type="MSShapeGroup" xlink:href="#path-4"></use>
                    <use fill="#FFFFFF" fill-rule="evenodd" xlink:href="#path-4"></use>
                </g>
                <g id="path14">
                    <use fill="none" sketch:type="MSShapeGroup" xlink:href="#path-5"></use>
                    <use fill="#FFFFFF" fill-rule="evenodd" xlink:href="#path-5"></use>
                </g>
                <g id="path16">
                    <use fill="none" sketch:type="MSShapeGroup" xlink:href="#path-6"></use>
                    <use fill="#FFFFFF" fill-rule="evenodd" xlink:href="#path-6"></use>
                </g>
                <g id="path18">
                    <use fill="none" sketch:type="MSShapeGroup" xlink:href="#path-7"></use>
                    <use fill="#FFFFFF" fill-rule="evenodd" xlink:href="#path-7"></use>
                </g>
            </g>
        </g>
    </g>
</svg>