<?xml version="1.0" encoding="UTF-8" standalone="no"?>
<svg width="512px" height="512px" viewBox="0 0 512 512" version="1.1" xmlns="http://www.w3.org/2000/svg" xmlns:xlink="http://www.w3.org/1999/xlink" xmlns:sketch="http://www.bohemiancoding.com/sketch/ns">
    <!-- Generator: Sketch 3.0.3 (7892) - http://www.bohemiancoding.com/sketch -->
    <title>icon_512x512</title>
    <desc>Created with Sketch.</desc>
    <defs></defs>
    <g id="Page-1" stroke="none" stroke-width="1" fill="none" fill-rule="evenodd" sketch:type="MSPage">
        <g id="icon_512x512" sketch:type="MSArtboardGroup" fill="#FFFFFF">
            <g id="NBALogo" sketch:type="MSLayerGroup" transform="translate(161.000000, 40.000000)">
                <path d="M121.11533,79.3697718 L121.256883,80.8344161 C124.328396,82.6477852 125.933959,84.1124295 129.07431,86.1350336 C137.311548,91.365906 147.435518,100.641987 146.17802,132.515436 C148.550492,139.489933 149.598569,153.090201 151.692782,157.414389 C155.951985,165.99302 158.882914,171.572617 160.139442,179.593289 C160.139442,179.593289 161.396939,192.147383 163.001533,193.054067 C171.51703,195.006926 169.075721,195.843866 170.261472,197.378255 C171.586838,199.052134 176.543142,198.982389 176.543142,203.585557 C178.289289,205.887141 179.615624,208.188725 180.522147,210.699544 L180.522147,44.9157584 C180.522147,25.9451275 165.164584,10.6012349 146.245888,10.6012349 L113.505386,10.6012349 C118.740919,12.484349 121.742624,14.7161879 123.488772,18.2034362 C127.675259,18.5521611 132.634472,27.9677315 124.883944,41.9864698 C128.303523,44.3577987 125.650853,47.845047 123.207604,51.8205101 C122.439726,53.0759195 121.671848,55.3775034 119.368213,55.2380134 C116.296701,61.5848054 112.735569,67.5828725 110.01503,67.9315973 C109.248122,68.9080268 108.687726,71.6280805 109.874447,72.8834899 C113.85636,74.6968591 118.671112,77.0681879 121.11533,79.3697718 L121.11533,79.3697718 Z" id="Shape" sketch:type="MSShapeGroup"></path>
                <path d="M151.690843,421.956078 L151.342777,422.025823 C166.350335,412.889233 157.06599,395.59345 154.204868,385.410685 L154.762355,383.665123 C155.530234,382.270224 153.92564,378.993179 153.92564,378.993179 C152.041817,377.45879 151.622005,368.950872 150.643736,365.045154 C149.040112,358.698362 153.505827,347.608913 153.505827,343.842685 C153.505827,340.074519 150.643736,334.91436 145.47898,328.359302 C144.221482,326.894658 140.451898,294.742228 137.101157,286.582067 C132.424081,275.352159 131.02697,277.164559 125.44434,263.705718 C121.185137,254.289179 124.535878,240.410899 114.903467,208.188725 L117.066518,206.166121 C117.066518,206.166121 109.387736,178.128644 106.873711,170.456698 C104.429492,162.784752 99.8939695,162.296537 99.8939695,162.296537 L100.172228,158.321074 C100.522234,157.135409 109.526381,133.770846 110.294259,133.003651 C110.363096,132.515436 123.278381,123.657826 123.486832,124.98298 C124.53297,130.702067 129.560051,159.785718 131.723102,164.388886 C133.887122,169.061799 141.358421,183.289772 144.778,192.147383 C131.444843,195.425396 121.461457,207.491275 121.461457,221.789962 C121.461457,238.668244 135.144619,252.407034 152.037939,252.407034 C164.950315,252.407034 176.121391,244.387331 180.588076,233.088647 L180.518269,388.132676 C180.521178,405.288 168.16532,419.44526 151.690843,421.956078 L151.690843,421.956078 Z" id="Shape" sketch:type="MSShapeGroup"></path>
                <path d="M89.6323249,35.2212081 C87.747533,35.430443 83.8373655,33.6170738 85.1646701,43.0326443 C85.1646701,43.0326443 85.8627411,49.3096913 88.375797,48.2635168 C86.421198,61.9335302 87.9744061,65.3549083 78.883,66.3274631 C76.928401,66.536698 74.5539898,66.6761879 71.6230609,66.8156779 L70.7155685,68.0710872 C58.2899036,69.2567517 52.1352437,68.4634027 44.1180914,79.021047 C41.0465787,83.066255 37.7656447,88.7853423 33.7168325,96.9455034 C33.7168325,96.9455034 30.0170558,106.082094 28.8991726,109.848322 C25.3390102,117.311034 16.6131218,133.840591 14.0302589,144.441826 C13.1935431,148.068564 11.5870102,149.184483 13.8906447,154.415356 C17.3111929,161.947812 11.6568173,163.900671 31.0631929,163.342711 L31.0631929,167.806389 C31.0631929,167.806389 25.897467,172.270067 24.7805533,174.920376 C23.7334467,177.64043 20.7317411,190.961718 20.8723249,197.30851 C21.2203909,213.838067 34.694132,227.646602 38.6721675,244.107383 L47.6772843,245.363761 C52.5637817,256.5927 73.9247563,286.860078 78.8820305,291.743195 C80.2073959,294.811973 85.7231269,298.369935 88.9332843,301.926928 C90.8888528,303.810043 99.8949391,313.574338 111.900792,322.851387 C116.308335,326.256298 121.047462,329.61568 126.001827,332.476192 C125.862213,332.405479 128.933726,338.544004 130.469482,343.564673 C124.326457,348.515597 136.263472,357.58438 139.893442,372.579548 C140.102863,374.600215 136.402117,376.624756 141.917848,381.57568 C141.568812,404.240857 134.658878,416.100407 146.245888,422.375517 L44.1180914,422.375517 C25.5503706,421.957047 10.5408731,406.753613 10.5408731,388.130738 L10.5408731,44.9157584 C10.5408731,26.1543624 25.549401,11.0197047 44.1180914,10.6012349 L102.755091,10.6012349 C91.5859543,14.9254228 90.050198,19.7378255 89.6323249,35.2212081 Z M119.720157,347.328964 L129.353538,398.660291 L116.927873,398.660291 L116.927873,398.662228 L115.811929,387.433289 L107.573721,387.433289 L106.317193,398.662228 L94.5886294,398.662228 L104.013558,347.329933 L119.720157,347.328964 L119.720157,347.328964 Z M63.3848528,398.662228 L63.3848528,347.329933 L80.2083655,347.329933 C88.7946396,347.329933 92.983066,350.607946 92.983066,359.395812 C92.983066,364.833982 92.2161574,369.578577 86.4919746,371.529499 L86.4919746,371.599244 C92.2161574,372.645418 94.3103706,376.970575 94.3103706,383.386143 C94.3103706,392.034519 91.0982741,398.662228 80.557401,398.662228 L63.3848528,398.662228 L63.3848528,398.662228 Z M59.4058477,398.662228 L59.4058477,347.329933 L49.144203,347.329933 L49.144203,377.599248 L49.0036193,377.599248 L48.6555533,375.506899 L40.4881218,347.329933 L28.9001421,347.329933 L28.9001421,398.662228 L39.1617868,398.662228 L39.1617868,366.928268 L39.3023706,366.928268 L39.5117919,368.740669 L47.8168985,398.662228 L59.4058477,398.662228 Z" id="Shape" sketch:type="MSShapeGroup"></path>
                <path d="M75.6010964,367.624749 L75.6010964,356.048054 L79.3008731,356.048054 C82.231802,356.048054 82.9308426,358.070658 82.9308426,361.627651 C82.9308426,364.834951 82.5818071,367.624749 78.8820305,367.624749 L75.6010964,367.624749 L75.6010964,367.624749 Z" id="Shape" sketch:type="MSShapeGroup"></path>
                <path d="M79.0914518,389.944107 C83.0704569,389.944107 83.4892995,387.991248 83.4892995,382.900834 C83.4892995,379.412617 83.0704569,375.995114 79.3706802,375.995114 L75.6001269,375.995114 L75.6001269,389.944107 L79.0914518,389.944107 L79.0914518,389.944107 Z" id="Shape" sketch:type="MSShapeGroup"></path>
                <path d="M111.969629,355.071624 L111.969629,356.327034 L114.694046,379.342872 L108.759472,379.342872 L111.762147,356.327034 L111.762147,355.071624 L111.969629,355.071624 L111.969629,355.071624 Z" id="Shape" sketch:type="MSShapeGroup"></path>
            </g>
        </g>
    </g>
</svg>