<?xml version="1.0" encoding="UTF-8" standalone="no"?>
<svg width="512px" height="512px" viewBox="0 0 512 512" version="1.1" xmlns="http://www.w3.org/2000/svg" xmlns:xlink="http://www.w3.org/1999/xlink" xmlns:sketch="http://www.bohemiancoding.com/sketch/ns">
    <!-- Generator: Sketch 3.0.3 (7892) - http://www.bohemiancoding.com/sketch -->
    <title>icon_512x512</title>
    <desc>Created with Sketch.</desc>
    <defs>
        <path d="M10.5745166,118.334423 L211.168488,118.282622 L211.663775,220.246852 C211.798474,260.315764 134.689253,240.396555 110.885145,277.865555 C86.7300672,237.094753 10.4491393,261.496188 10.0792297,215.078975 L10.5745166,118.334423 Z M22.4255984,127.165452 L22.674461,141.248196 L30.1396904,144.517407 L30.6373912,212.416311 L22.4255984,215.685523 L22.4255984,226.247568 L52.0377514,233.791901 L51.788901,220.966552 L46.065563,214.931088 L45.8167126,178.969807 L65.724044,236.809638 L80.9033655,241.587707 L81.6498798,144.517407 L86.6267158,140.493761 L86.6267158,127.165452 L58.5076405,127.165452 L58.5076405,140.493761 L64.9775052,144.265921 L65.2263556,188.777418 L45.3190241,126.913978 L22.4255984,127.165452 Z M148.358559,128.397489 L148.358559,141.922514 L153.595135,144.928072 L154.343217,221.820344 L148.358559,228.833335 L148.857297,240.354656 L198.978671,226.078238 L198.479945,194.269397 L186.26131,194.018912 L184.515777,213.054132 L172.297141,217.061554 L172.546498,145.679464 L178.780512,140.67019 L178.531143,128.147029 L148.358559,128.397489 Z M92.3241151,233.608144 L92.577074,244.379693 L121.919263,255.151266 L121.919263,242.626182 L115.595514,235.862651 L115.595514,187.515875 L124.95467,187.766386 L129.507769,193.527901 L137.096263,193.27739 L137.349209,166.724247 L128.748905,166.473749 L125.207617,172.235289 L115.848461,172.485787 L115.848461,143.678125 L127.48416,144.179121 L131.784312,153.94869 L143.167065,153.698168 L143.420012,128.147029 L91.5652632,128.147029 L91.8182222,141.173109 L98.3949051,145.431636 L99.1537694,230.351621 L92.3241151,233.608144 Z" id="path-1"></path>
    </defs>
    <g id="Page-1" stroke="none" stroke-width="1" fill="none" fill-rule="evenodd" sketch:type="MSPage">
        <g id="icon_512x512" sketch:type="MSArtboardGroup">
            <g id="National_Football_League_2008" sketch:type="MSLayerGroup" transform="translate(146.000000, 111.000000)">
                <g id="layer1" transform="translate(-0.053768, 0.136449)">
                    <path d="M0.950102458,26.9083631 C38.9985366,59.9787868 97.0750155,26.566882 111.142912,-0.197855339 C138.532356,48.4728688 206.449274,46.3766947 220.792902,26.36624 L221.335735,225.868035 C221.064065,269.711303 136.9748,248.778009 110.886466,291.37973 C84.4134687,245.023887 2.0678686,271.427981 0.407269665,219.992239 L0.950102458,26.9083631 Z" id="path2555" stroke="#FFFFFF" stroke-width="5" sketch:type="MSShapeGroup"></path>
                    <path d="M33.6695619,75.3678954 L24.5587882,68.9132737 L15.5056358,75.4482653 L18.8368563,64.7999462 L9.8161394,58.2203706 L20.985723,58.093971 L24.4637633,47.4925787 L28.0357219,58.0627745 L39.2059871,58.0903307 L30.2439981,64.7494712 L33.6695619,75.3678954 L33.6695619,75.3678954 Z" id="path3327" fill="#FFFFFF" sketch:type="MSShapeGroup"></path>
                    <path d="M72.1187591,75.3678954 L63.0079855,68.9132737 L53.9548331,75.4482653 L57.2860536,64.7999462 L48.2653367,58.2203706 L59.4349202,58.093971 L62.9129606,47.4925787 L66.4849191,58.0627745 L77.6551844,58.0903307 L68.6931954,64.7494712 L72.1187591,75.3678954 L72.1187591,75.3678954 Z" id="path3329" fill="#FFFFFF" sketch:type="MSShapeGroup"></path>
                    <path d="M33.6695619,109.287719 L24.5587882,102.833097 L15.5056358,109.368088 L18.8368563,98.7197693 L9.8161394,92.1401937 L20.985723,92.0137941 L24.4637633,81.4124018 L28.0357219,91.9825977 L39.2059871,92.0101539 L30.2439981,98.6692944 L33.6695619,109.287719 L33.6695619,109.287719 Z" id="path3333" fill="#FFFFFF" sketch:type="MSShapeGroup"></path>
                    <path d="M72.1187591,109.287719 L63.0079855,102.833097 L53.9548331,109.368088 L57.2860536,98.7197693 L48.2653367,92.1401937 L59.4349202,92.0137941 L62.9129606,81.4124018 L66.4849191,91.9825977 L77.6551844,92.0101539 L68.6931954,98.6692944 L72.1187591,109.287719 L72.1187591,109.287719 Z" id="path3335" fill="#FFFFFF" sketch:type="MSShapeGroup"></path>
                    <path d="M168.241721,75.3678954 L159.130948,68.9132737 L150.077795,75.4482653 L153.409016,64.7999462 L144.388299,58.2203706 L155.557883,58.093971 L159.035923,47.4925787 L162.607881,58.0627745 L173.778147,58.0903307 L164.816158,64.7494712 L168.241721,75.3678954 L168.241721,75.3678954 Z" id="path3337" fill="#FFFFFF" sketch:type="MSShapeGroup"></path>
                    <path d="M206.690919,75.3678954 L197.580145,68.9132737 L188.526993,75.4482653 L191.858213,64.7999462 L182.837496,58.2203706 L194.00708,58.093971 L197.48512,47.4925787 L201.057079,58.0627745 L212.227344,58.0903307 L203.265355,64.7494712 L206.690919,75.3678954 L206.690919,75.3678954 Z" id="path3339" fill="#FFFFFF" sketch:type="MSShapeGroup"></path>
                    <path d="M168.241721,109.287719 L159.130948,102.833097 L150.077795,109.368088 L153.409016,98.7197693 L144.388299,92.1401937 L155.557883,92.0137941 L159.035923,81.4124018 L162.607881,91.9825977 L173.778147,92.0101539 L164.816158,98.6692944 L168.241721,109.287719 L168.241721,109.287719 Z" id="path3341" fill="#FFFFFF" sketch:type="MSShapeGroup"></path>
                    <path d="M206.690919,109.287719 L197.580145,102.833097 L188.526993,109.368088 L191.858213,98.7197693 L182.837496,92.1401937 L194.00708,92.0137941 L197.48512,81.4124018 L201.057079,91.9825977 L212.227344,92.0101539 L203.265355,98.6692944 L206.690919,109.287719 L206.690919,109.287719 Z" id="path3343" fill="#FFFFFF" sketch:type="MSShapeGroup"></path>
                    <path d="M84.979278,107.352428 C87.5593975,94.7150376 91.1853037,83.4702304 95.7735724,73.5069329 L91.5060624,71.2505732 L93.0122453,68.4927933 C103.457866,70.9549986 102.674686,72.3877913 105.814763,74.2590569 L103.806515,77.7689608 L98.7859135,75.5125888 C92.1435918,85.9422507 90.0585494,97.0221004 87.9916315,108.104564 C115.360531,106.681143 153.123307,85.1737764 135.185256,37.6557946 C131.124288,39.4890206 127.28232,41.7596714 123.888908,44.9263063 L127.403315,48.1854939 L124.893014,50.441866 C122.35481,47.7119654 119.526628,45.2716345 114.349758,45.1770102 L117.613163,42.9206504 L121.88066,43.4220582 C123.946047,40.9149946 127.514333,38.4079063 132.925981,35.9008303 C92.7522925,35.6207058 74.1103128,64.0931076 84.979278,107.352428 L84.979278,107.352428 Z M107.822999,50.1911498 C113.945304,52.1104551 117.040625,54.6343992 119.872425,57.2109576 L122.382713,53.701066 C119.325209,50.2362671 114.351462,48.6852248 109.329182,47.182666 L107.822999,50.1911498 L107.822999,50.1911498 Z M101.045176,57.4616615 C107.167505,59.3809544 110.262802,61.9048986 113.094614,64.4814693 L115.604915,60.9715777 C112.547398,57.5067788 107.573651,55.9557365 102.551358,54.4531654 L101.045176,57.4616615 L101.045176,57.4616615 Z M96.0245988,63.7293453 C102.146904,65.6486506 105.242225,68.1725947 108.074025,70.7491654 L110.584313,67.2392615 C107.526809,63.7744503 102.553062,62.2234326 97.5307817,60.7208615 L96.0245988,63.7293453 L96.0245988,63.7293453 Z" id="path3345" stroke="#FFFFFF" fill="#FFFFFF" sketch:type="MSShapeGroup"></path>
                    <mask id="mask-2" sketch:name="path3359" fill="white">
                        <use xlink:href="#path-1"></use>
                    </mask>
                    <use id="path3359" fill="#FFFFFF" sketch:type="MSShapeGroup" xlink:href="#path-1"></use>
                </g>
            </g>
        </g>
    </g>
</svg>