<?xml version="1.0" encoding="UTF-8" standalone="no"?>
<svg width="512px" height="512px" viewBox="0 0 512 512" version="1.1" xmlns="http://www.w3.org/2000/svg" xmlns:xlink="http://www.w3.org/1999/xlink" xmlns:sketch="http://www.bohemiancoding.com/sketch/ns">
    <!-- Generator: Sketch 3.0.3 (7892) - http://www.bohemiancoding.com/sketch -->
    <title>icon_512x512</title>
    <desc>Created with Sketch.</desc>
    <defs></defs>
    <g id="Page-1" stroke="none" stroke-width="1" fill="none" fill-rule="evenodd" sketch:type="MSPage">
        <g id="icon_512x512" sketch:type="MSArtboardGroup" fill="#FFFFFF">
            <path d="M95.5776516,332.311398 C94.1921546,332.538747 89.0005117,332.311398 88.310713,332.311398 L88.310713,353.401344 L84.1551296,353.401344 L80,353.401344 L80,302.151526 L93.4978177,302.151526 C105.957761,302.151526 111.841018,306.007844 111.841018,316.43642 C111.841471,326.414835 106.306291,331.175558 95.5776516,332.311398 L95.5776516,332.311398 Z M94.1926084,307.592937 L88.3111668,307.592937 L87.9626369,326.414835 L92.8089266,326.414835 C99.3806208,325.961497 103.188128,323.013216 103.188128,316.210432 C103.187674,310.313415 100.075865,308.048089 94.1926084,307.592937 L94.1926084,307.592937 Z M144.024211,353.401344 L139.874528,353.401344 L139.874528,348.639713 C137.451156,352.267774 133.991725,354.308927 129.836141,354.308927 C119.797755,354.308927 113.914952,346.143408 113.914952,335.48476 C113.914952,326.642184 119.455578,318.023782 129.145435,318.251131 C135.028238,318.251131 138.140955,321.65275 139.874074,324.148602 L139.874074,318.931818 L144.023758,318.931818 L147.830811,318.931818 L147.830811,353.401344 C147.48455,353.401344 144.370926,353.401344 144.024211,353.401344 L144.024211,353.401344 Z M140.216704,336.392342 C140.216704,330.723582 137.451156,323.468369 130.526394,323.468369 C124.30096,323.468369 121.531328,329.590012 121.531328,335.484306 C121.531328,342.061556 124.301414,348.184107 130.526394,348.184107 C136.756365,348.184107 139.874528,342.514439 139.874528,336.391888 L140.216704,336.391888 L140.216704,336.392342 Z M138.141408,267.001313 L138.141408,279.92801 L135.718944,279.92801 L135.718944,267.001313 L132.948858,267.001313 L132.948858,264.508638 L140.911495,264.508638 L140.911495,267.001313 L138.141408,267.001313 L138.141408,267.001313 Z M149.563477,279.92801 C148.868232,279.020881 148.868232,277.888218 148.868232,276.97882 C148.868232,275.164109 149.216308,273.578109 147.141012,273.578109 L146.446676,273.578109 L146.446676,279.92801 L144.024211,279.92801 L144.024211,264.508638 L148.868232,264.508638 C150.601351,264.508638 151.639226,265.868196 151.639226,268.362233 C151.639226,270.402932 150.943982,271.990294 149.563477,272.219004 L149.563477,272.443177 C149.907468,272.443177 151.639226,272.670527 151.639226,275.391913 C151.639226,276.300403 151.639226,279.248684 151.986395,279.928463 L149.563477,279.928463 L149.563477,279.92801 Z M147.48455,266.773964 L146.099053,266.773964 L146.099053,271.082711 L147.48455,271.310514 C148.526509,271.310514 148.868232,269.950048 148.868232,268.815117 C148.868232,267.229116 148.179341,266.773964 147.48455,266.773964 L147.48455,266.773964 Z M162.020243,279.92801 L161.32999,276.527298 L157.521575,276.527298 L156.831777,279.92801 L154.408859,279.92801 L157.869198,264.508638 L161.32999,264.508638 L164.442253,279.92801 L162.020243,279.92801 L162.020243,279.92801 Z M175.864775,326.414835 C174.479732,325.734148 173.094689,325.053915 171.709192,325.053915 C169.286274,325.053915 167.211432,326.189301 166.522087,328.001743 C164.442253,330.495779 164.442253,332.991631 164.442253,336.392342 L164.099169,353.400891 L160.291662,353.400891 L156.483701,353.400891 L156.483701,318.931364 L160.291662,318.931364 L164.442253,318.931364 L164.442253,324.373228 L164.442253,323.692541 C166.522087,320.29183 169.981972,318.023782 173.784034,318.023782 C174.827354,318.023782 175.864775,318.251131 176.555028,318.704468 L175.864775,326.414835 L175.864775,326.414835 Z M159.254241,267.454197 L158.906165,267.454197 L157.868744,274.032354 L160.291662,274.032354 L159.254241,267.454197 L159.254241,267.454197 Z M175.864775,271.990294 C175.864775,274.258796 175.864775,279.701114 171.362477,279.701114 L167.211886,279.701114 L167.211886,264.280381 L171.362477,264.280381 C174.827354,264.280381 175.517153,267.000859 175.517153,271.76249 L175.864775,271.990294 L175.864775,271.990294 Z M171.018939,266.773964 L169.981972,266.773964 L169.981972,277.432158 L171.018939,277.659961 C172.746613,277.659961 173.094689,276.072146 173.094689,272.219004 C173.094235,269.269362 173.094235,266.773964 171.018939,266.773964 L171.018939,266.773964 Z M179.324206,279.701568 L179.324206,264.280835 L186.24443,264.280835 L186.24443,266.549791 L182.094747,266.549791 L182.094747,270.403386 L185.897262,270.403386 L185.897262,272.899237 L182.094747,272.899237 L182.094747,277.208439 L186.24443,277.208439 L186.24443,279.702021 L179.324206,279.702021 L179.324206,279.701568 Z M186.24443,353.401344 L182.094747,353.401344 L182.094747,296.481859 L186.24443,296.481859 L190.051938,296.481859 L190.051938,353.401344 L186.24443,353.401344 L186.24443,353.401344 Z M253.728527,283.554709 C215.315815,283.554709 184.170042,252.48907 184.170042,214.390575 C184.170042,176.067908 215.315815,145 253.380451,145 C291.79407,145 322.940751,176.067908 322.940751,214.166402 C322.940751,252.48907 291.79407,283.554709 253.728527,283.554709 L253.728527,283.554709 Z M314.635484,214.619286 C314.635484,180.829539 287.296764,153.390146 253.728527,153.390146 C219.812668,153.390146 192.474402,180.829539 192.474402,214.390575 C192.474402,248.179869 219.812668,275.619716 253.379997,275.619716 C287.29631,275.619716 314.635484,248.179869 314.635484,214.390575 L314.635484,214.619286 L314.635484,214.619286 Z M214.625563,354.308927 C204.587176,354.308927 196.62454,346.823641 196.973069,335.939912 C196.973069,325.282172 204.587176,318.024235 215.315815,318.251585 C225.695471,318.251585 232.962863,325.509975 232.962863,336.165447 C232.962863,346.143408 226.042639,354.308927 214.625563,354.308927 L214.625563,354.308927 Z M222.929922,345.915605 C228.117027,341.610034 225.35284,333.899213 222.234224,330.043349 C218.427624,325.734148 212.202191,322.332983 207.35817,326.64173 C201.816636,331.175558 203.892386,338.208415 207.699439,342.742243 C211.506947,347.275617 217.737372,350.225713 223.272553,346.143408 L222.929922,345.915605 L222.929922,345.915605 Z M268.61048,260.199437 C262.380963,260.199437 259.261893,258.611167 249.92102,251.808837 C244.733007,257.478051 239.888079,259.972087 233.657654,259.972087 C226.390261,259.744738 220.160744,255.662432 220.160744,248.860556 C220.160744,242.283306 225.004764,237.74857 232.620233,237.74857 C235.732949,237.74857 239.193288,238.429257 242.653173,240.017073 C244.03867,240.697759 246.808757,241.830422 247.846178,242.28376 C248.535977,241.150643 248.883145,237.749024 248.883145,235.709233 C248.883145,232.532694 248.192892,229.131529 246.808757,225.503014 L234.347906,225.72991 L231.578274,219.380463 L244.733461,219.380463 C243.691048,217.339764 242.653173,215.07217 241.616206,213.031017 L229.155356,213.031017 L226.389808,206.681116 L239.539549,206.681116 C236.769917,200.559473 235.042697,194.889806 235.042697,188.767708 C235.042697,175.613209 245.075638,163.821444 259.956683,163.596364 C269.647901,163.596364 278.643875,170.626497 280.723255,176.067908 L275.183536,179.016643 C273.798039,176.293442 268.954018,170.170891 259.611784,170.170891 C249.572944,170.170891 244.385385,177.42792 244.385385,185.59117 C244.385385,192.3935 248.192439,199.425449 251.652324,206.680663 L262.727677,206.680663 L265.151049,213.030563 L254.075242,213.030563 C254.765494,215.071716 255.460739,217.111507 256.150991,219.38001 L267.568067,219.38001 L270.338154,225.729456 L257.188866,225.502561 C257.535581,227.09083 257.535581,228.677738 257.535581,230.266461 C257.535581,236.160755 255.802915,241.377992 253.728527,245.459391 C261.686172,250.448371 263.419291,252.941954 268.61048,252.941954 C275.183536,252.941954 277.606,248.860556 281.066339,244.324005 L283.835518,250.673905 C282.10376,254.983107 277.606,260.199437 268.61048,260.199437 L268.61048,260.199437 Z M232.962863,243.418691 C229.503432,243.418691 226.389808,245.459391 226.389808,248.860556 C226.389808,252.48907 229.8506,254.530677 233.6572,254.530677 C238.156321,254.530677 241.962467,251.808837 245.42326,248.180323 C240.925954,245.231587 236.769917,243.418691 232.962863,243.418691 L232.962863,243.418691 Z M256.498613,354.082031 C252.343484,354.082031 248.883145,352.040425 246.808757,348.41191 L246.461135,348.41191 L246.461135,371.769451 L242.305551,371.769451 L238.502582,371.769451 L238.844759,318.704015 L242.305551,318.704015 L246.461135,318.704015 L246.461135,323.920798 L246.461135,323.692541 C248.192439,321.199412 251.306063,317.798701 257.188866,317.798701 C266.878723,317.798701 272.413903,326.414835 272.413903,335.260133 C272.413903,345.915605 266.5311,354.082031 256.498613,354.082031 L256.498613,354.082031 Z M255.460739,323.692541 C248.883145,323.692541 246.113059,330.950932 246.113059,336.620145 C246.113059,342.742243 249.231675,348.41191 255.460739,348.41191 C261.343542,348.41191 264.455351,342.289813 264.455351,335.712109 C264.455351,329.815092 261.686172,323.692541 255.460739,323.692541 L255.460739,323.692541 Z M305.291434,353.173087 L301.140843,353.173087 L301.484834,334.579446 C301.484834,328.454173 300.44696,323.921252 294.565064,323.921252 C288.334185,324.148602 286.949596,329.135313 286.949596,334.804527 L286.949596,353.173541 L283.14708,353.173541 L278.991043,353.173541 L278.991043,296.253602 L283.14708,296.253602 L286.949596,296.253602 L286.949596,323.468369 L286.949596,323.241019 C289.371152,319.612051 292.833306,318.023782 297.333335,318.023782 C305.985771,318.251131 309.100757,323.692541 309.100757,332.310944 L309.100757,353.173087 C308.751773,353.173087 305.639056,353.173087 305.291434,353.173087 L305.291434,353.173087 Z M332.977776,354.082031 C322.595852,354.082031 315.329367,346.596291 315.329367,335.712563 C315.676989,325.054369 322.940297,317.799155 333.671659,318.024235 C344.051768,318.024235 351.320068,325.282172 351.320068,335.939912 C351.320068,345.915605 344.400298,354.082031 332.977776,354.082031 L332.977776,354.082031 Z M331.592279,279.701568 L331.592279,267.681546 L329.168907,279.701568 L326.747351,279.701568 L324.323979,267.681546 L324.323979,279.701568 L321.901515,279.701568 L321.901515,264.280835 L326.055737,264.280835 L328.131486,274.71168 L330.206328,264.280835 L334.361458,264.280835 L334.361458,279.701568 L331.592279,279.701568 L331.592279,279.701568 Z M341.630212,346.143408 C346.822308,341.83466 344.051768,334.124748 340.591429,330.270699 C336.784376,325.961497 330.554404,322.559879 325.710383,326.869534 C320.173387,331.403362 322.595852,338.433495 326.403359,342.969138 C330.206782,347.503874 336.435846,350.452155 341.630212,346.370757 L341.630212,346.143408 L341.630212,346.143408 Z M344.743382,279.701568 L344.052222,276.300403 L340.245168,276.300403 L339.554916,279.701568 L337.132452,279.701568 L340.591883,264.280835 L344.052222,264.280835 L347.512561,279.701568 L344.743382,279.701568 L344.743382,279.701568 Z M342.32001,267.454197 L340.934513,274.032354 L343.357885,274.032354 L342.32001,267.454197 L342.32001,267.454197 Z M355.816466,279.701568 C355.469752,278.793078 355.469752,277.659961 355.126668,276.751925 C355.126668,274.939029 355.469752,273.352121 353.39491,273.352121 L352.705111,273.352121 L352.705111,279.701568 L349.933663,279.701568 L349.933663,264.280835 L354.780407,264.280835 C356.51398,264.280835 357.893124,265.641301 357.893124,268.135337 C357.893124,270.175583 357.203325,271.763398 355.469752,271.990747 L355.816466,272.219458 C356.165904,272.219458 357.893124,272.443631 357.893124,275.164563 L357.893124,279.701568 L355.816466,279.701568 L355.816466,279.701568 Z M355.470206,268.815117 C355.470206,267.229116 354.780407,266.773964 354.089247,266.773964 L353.047742,266.773964 L353.047742,271.082711 L354.089247,271.310514 C355.470206,271.310514 355.470206,269.950048 355.470206,268.815117 L355.470206,268.815117 Z M383.502808,353.173087 L379.694847,353.173087 L379.694847,334.351189 C379.694847,328.909325 379.354486,323.692541 373.121792,323.692541 C366.195668,323.692541 365.160516,329.815092 365.160516,336.392342 L365.160516,353.173087 L361.358001,353.173087 L357.548224,353.173087 L357.548224,318.704015 L361.358001,318.704015 L365.160516,318.704015 L365.160516,323.468369 L365.507231,323.468369 C367.929695,319.612051 371.390941,317.798701 375.888247,317.798701 C384.540683,317.798701 387.658392,323.468369 387.658392,332.310944 L387.658392,353.173087 L383.502808,353.173087 L383.502808,353.173087 Z M366.892274,279.701568 L363.775019,271.762944 L363.775019,279.701568 L361.358001,279.701568 L361.358001,264.280835 L363.775019,264.280835 L363.775019,270.858085 L366.892274,264.280835 L369.66236,264.280835 L366.546013,271.082711 L369.66236,279.701568 L366.892274,279.701568 L366.892274,279.701568 Z M426.072011,336.620145 L410.841528,336.620145 L402.194084,336.847495 C402.194084,342.969138 404.956909,348.86434 411.883033,348.86434 C416.033171,348.86434 419.145887,346.370757 420.530477,343.875359 L425.033229,346.595838 C422.263142,351.360191 417.071045,354.081577 411.18915,354.081577 C400.808133,354.081577 393.882917,347.051444 393.882917,335.939459 C393.882917,325.734148 399.422636,317.798247 410.498444,317.798247 C419.841586,317.798247 426.071557,324.600578 426.071557,335.259679 C426.072011,335.48476 426.072011,336.392342 426.072011,336.620145 L426.072011,336.620145 Z M410.841528,322.559879 C405.306347,322.559879 402.882975,327.549313 402.537168,332.538293 L418.456089,332.538293 C418.456089,327.549313 416.380339,322.788136 410.841528,322.559879 L410.841528,322.559879 Z" id="Parlophone" sketch:type="MSShapeGroup"></path>
        </g>
    </g>
</svg>