<?xml version="1.0" encoding="UTF-8" standalone="no"?>
<svg width="512px" height="512px" viewBox="0 0 512 512" version="1.1" xmlns="http://www.w3.org/2000/svg" xmlns:xlink="http://www.w3.org/1999/xlink" xmlns:sketch="http://www.bohemiancoding.com/sketch/ns">
    <!-- Generator: Sketch 3.0.3 (7892) - http://www.bohemiancoding.com/sketch -->
    <title>icon_512x512</title>
    <desc>Created with Sketch.</desc>
    <defs></defs>
    <g id="Page-1" stroke="none" stroke-width="1" fill="none" fill-rule="evenodd" sketch:type="MSPage">
        <g id="icon_512x512" sketch:type="MSArtboardGroup" fill="#FFFFFF">
            <g id="Twitter_bird_logo_2012" sketch:type="MSLayerGroup" transform="translate(102.000000, 132.000000)">
                <g id="layer1" transform="translate(0.345321, 0.000000)" sketch:type="MSShapeGroup">
                    <path d="M307.193813,29.3515071 C295.885485,34.3654894 283.730354,37.7526955 270.975835,39.2765576 C283.994705,31.4759787 293.99513,19.1238232 298.702575,4.40446584 C286.516708,11.628959 273.021413,16.8733648 258.656268,19.6998909 C247.154292,7.44910886 230.765075,-0.20398675 212.62689,-0.20398675 C177.801337,-0.20398675 149.564353,28.0165805 149.564353,62.8257057 C149.564353,67.7659553 150.122233,72.5771727 151.198045,77.1902291 C98.7875633,74.5618818 52.3217276,49.4673573 21.2184753,11.3324878 C15.7902376,20.6415409 12.6796005,31.4683117 12.6796005,43.0201561 C12.6796005,64.8887513 23.8127219,84.1812355 40.7336886,95.4842053 C30.3966863,95.1570122 20.6728897,92.3212784 12.1708987,87.6007041 C12.1637299,87.8633722 12.1637299,88.1275809 12.1637299,88.3933481 C12.1637299,118.93198 33.9012877,144.405916 62.7499356,150.200271 C57.4584797,151.641175 51.887313,152.410782 46.1363156,152.410782 C42.0728304,152.410782 38.1230791,152.01446 34.2716665,151.280179 C42.2972155,176.320927 65.585468,194.544252 93.1815739,195.051173 C71.5992576,211.958022 44.4088908,222.035159 14.8624805,222.035159 C9.77234383,222.035159 4.75292792,221.735607 -0.180443836,221.153395 C27.7276506,239.038778 60.87494,249.473831 96.487383,249.473831 C212.479857,249.473831 275.91125,153.429264 275.91125,70.1331571 C275.91125,67.4003552 275.849777,64.6829053 275.728372,61.9777622 C288.047939,53.0926719 298.738438,41.9924489 307.192791,29.3515071 L307.193813,29.3515071 Z" id="path5"></path>
                </g>
            </g>
        </g>
    </g>
</svg>