<?xml version="1.0" encoding="UTF-8" standalone="no"?>
<svg width="512px" height="512px" viewBox="0 0 512 512" version="1.1" xmlns="http://www.w3.org/2000/svg" xmlns:xlink="http://www.w3.org/1999/xlink" xmlns:sketch="http://www.bohemiancoding.com/sketch/ns">
    <!-- Generator: Sketch 3.0.3 (7892) - http://www.bohemiancoding.com/sketch -->
    <title>icon_512x512</title>
    <desc>Created with Sketch.</desc>
    <defs></defs>
    <g id="Page-1" stroke="none" stroke-width="1" fill="none" fill-rule="evenodd" sketch:type="MSPage">
        <g id="icon_512x512" sketch:type="MSArtboardGroup" fill="#FFFFFF">
            <path d="M251.488598,283.068162 L230.646291,283.068162 L239.901186,230.567292 L260.79545,230.567292 L251.488598,283.068162 Z M186.917684,261.530674 L147.097978,261.530674 C146.012418,267.736597 150.114773,271.852905 155.626587,271.852905 C158.904271,271.852905 162.17311,270.352754 164.254688,267.240962 L184.220367,267.240962 C178.294006,280.26766 164.306644,284.570521 152.042692,284.570521 C135.196616,284.570521 123.870092,274.955867 126.987484,257.322745 C129.996541,240.083703 144.920225,229.061622 161.767407,229.061622 C181.201361,229.061622 190.608809,242.495645 186.916579,261.526259 L186.917684,261.530674 Z M148.967308,250.911504 L167.944707,250.911504 C168.773801,246.097553 165.23744,241.792484 160.304886,241.792484 C154.114321,241.792484 149.957798,245.302771 148.962886,250.9104 L148.967308,250.911504 Z M313.028346,257.413262 C316.255178,239.181846 330.084459,229.062726 347.808269,229.062726 C366.418656,229.062726 375.934439,239.982147 373.023768,256.314917 C369.644383,275.551953 354.981586,284.570521 338.142143,284.570521 C321.250743,284.570521 309.864525,275.353258 313.026135,257.404431 L313.028346,257.413262 Z M346.567945,243.096147 C339.445478,243.096147 336.015242,250.411453 334.970584,256.323748 C333.259335,266.238654 336.167795,270.556969 341.528161,270.556969 C347.135045,270.556969 351.2982,266.240861 353.064722,256.323748 C354.413381,248.60774 352.025591,242.801416 346.564628,243.099459 L346.567945,243.096147 Z M187.381977,283.067058 L196.686618,230.566189 L215.664017,230.566189 L213.792477,241.188671 L213.951663,241.188671 C218.316011,232.965989 224.135143,229.06383 232.245889,229.06383 C233.182212,229.06383 234.066578,229.265837 234.953156,229.368496 L231.257609,250.199512 C229.853677,250.005231 228.457484,249.602321 227.052447,249.602321 C218.526048,249.602321 213.484054,253.609347 211.503073,264.928367 L208.285084,283.064851 L187.384188,283.064851 L187.373133,283.064851 L187.381977,283.067058 Z M372.822575,283.067058 L382.078576,230.566189 L401.154361,230.566189 L399.702894,238.778936 C405.52092,232.462627 411.239455,229.061622 419.142375,229.061622 C433.02914,229.061622 438.118669,237.175022 435.567272,251.600315 L430.010134,283.064851 L409.094866,283.064851 L414.03737,255.312609 C414.920631,250.09906 414.345792,245.492636 408.418326,245.492636 C402.028778,245.492636 399.580188,249.600113 398.388505,256.311606 L393.656038,283.061539 L372.812626,283.061539 L372.812626,283.065955 L372.797149,283.065955 L372.822575,283.067058 Z M83.9884799,283.067058 L75,230.566189 L95.8920528,230.566189 L99.278071,263.727363 L114.244868,230.566189 L134.315566,230.566189 L107.279377,283.067058 L83.9884799,283.067058 L83.9884799,283.067058 Z M241.096186,223.8558 L243.689591,209 L264.588277,209 L261.939599,223.8558 L241.097292,223.8558 L241.101714,223.8558 L241.096186,223.8558 Z M254.086425,303.048099 L256.474214,289.625114 L289.803776,245.801718 L263.70391,245.801718 L266.456501,230.579435 L316.312662,230.579435 L313.869599,244.00242 L280.385273,287.814777 L308.883983,287.814777 L429.113607,287.814777 L426.471562,303.048099 L306.175611,303.048099 L254.086425,303.048099" id="path19" sketch:type="MSShapeGroup"></path>
        </g>
    </g>
</svg>